# MagicaVoxel @ Ephtracy

# group
g labirintoDoor

# material
mtllib labirintoDoor.mtl
usemtl palette

# normals
vn -1 0 0
vn 1 0 0
vn 0 0 1
vn 0 0 -1
vn 0 -1 0
vn 0 1 0

# texcoords
vt 0.0683594 0.5
vt 0.396484 0.5
vt 0.537109 0.5
vt 0.845703 0.5
vt 0.986328 0.5
vt 0.990234 0.5
vt 0.994141 0.5

# verts
v -11 0 4
v -11 0 -5
v -11 4 4
v -11 4 3
v -11 5 4
v -11 5 3
v -11 12 4
v -11 12 -5
v -10 8 5
v -10 8 4
v -10 9 5
v -10 9 4
v -10 12 4
v -10 12 -5
v -10 14 4
v -10 14 3
v -10 15 4
v -10 15 3
v -10 16 4
v -10 16 -5
v -9 4 5
v -9 4 4
v -9 6 5
v -9 6 4
v -9 7 5
v -9 7 4
v -9 8 5
v -9 8 4
v -9 9 5
v -9 9 4
v -9 11 5
v -9 11 4
v -9 16 4
v -9 16 -5
v -9 18 4
v -9 18 -5
v -8 18 4
v -8 18 -5
v -8 19 4
v -8 19 -5
v -7 19 4
v -7 19 -5
v -7 20 4
v -7 20 -5
v -5 20 4
v -5 20 -5
v -5 21 4
v -5 21 -5
v -2 21 4
v -2 21 -5
v -2 22 4
v -2 22 -5
v 2 16 4
v 2 16 -4
v 2 17 4
v 2 17 -4
v 4 15 4
v 4 15 3
v 4 15 -4
v 4 16 4
v 4 16 3
v 4 16 -4
v 5 12 4
v 5 12 -4
v 5 14 -2
v 5 14 -3
v 5 15 4
v 5 15 3
v 5 15 -2
v 5 15 -3
v 5 15 -4
v 6 1 4
v 6 1 -4
v 6 2 4
v 6 2 3
v 6 3 4
v 6 3 3
v 6 4 1
v 6 4 -1
v 6 5 1
v 6 5 -1
v 6 8 4
v 6 8 3
v 6 9 4
v 6 9 3
v 6 9 1
v 6 9 -0
v 6 10 1
v 6 10 -0
v 6 12 4
v 6 12 -4
v 7 8 5
v 7 8 4
v 7 9 4
v 7 10 5
v 7 10 4
v 8 4 5
v 8 4 4
v 8 6 5
v 8 6 4
v 8 7 5
v 8 7 4
v 8 8 5
v 8 8 4
v 8 10 5
v 8 10 4
v 8 11 5
v 8 11 4
v -8 4 5
v -8 4 4
v -8 6 5
v -8 6 4
v -8 7 5
v -8 7 4
v -8 8 5
v -8 8 4
v -8 10 5
v -8 10 4
v -8 11 5
v -8 11 4
v -7 8 5
v -7 8 4
v -7 9 4
v -7 10 5
v -7 10 4
v -6 1 4
v -6 1 -4
v -6 2 4
v -6 2 3
v -6 3 4
v -6 3 3
v -6 4 1
v -6 4 -1
v -6 5 1
v -6 5 -1
v -6 8 4
v -6 8 3
v -6 9 4
v -6 9 3
v -6 9 1
v -6 9 -0
v -6 10 1
v -6 10 -0
v -6 12 4
v -6 12 -4
v -5 12 4
v -5 12 -4
v -5 14 -2
v -5 14 -3
v -5 15 4
v -5 15 3
v -5 15 -2
v -5 15 -3
v -5 15 -4
v -4 15 4
v -4 15 3
v -4 15 -4
v -4 16 4
v -4 16 3
v -4 16 -4
v -2 16 4
v -2 16 -4
v -2 17 4
v -2 17 -4
v 2 21 4
v 2 21 3
v 2 21 -5
v 2 22 4
v 2 22 -5
v 5 20 4
v 5 20 -5
v 5 21 4
v 5 21 -5
v 7 19 4
v 7 19 -5
v 7 20 4
v 7 20 -5
v 8 18 4
v 8 18 -5
v 8 19 4
v 8 19 -5
v 9 4 5
v 9 4 4
v 9 6 5
v 9 6 4
v 9 7 5
v 9 7 4
v 9 8 5
v 9 8 4
v 9 9 5
v 9 9 4
v 9 11 5
v 9 11 4
v 9 16 4
v 9 16 -5
v 9 18 4
v 9 18 -5
v 10 8 5
v 10 8 4
v 10 9 5
v 10 9 4
v 10 12 4
v 10 12 -5
v 10 16 4
v 10 16 -5
v 11 0 4
v 11 0 -5
v 11 2 4
v 11 2 3
v 11 3 4
v 11 3 3
v 11 10 4
v 11 10 3
v 11 11 4
v 11 11 3
v 11 12 4
v 11 12 -5
v -10 8 5
v -10 9 5
v -9 4 5
v -9 6 5
v -9 7 5
v -9 8 5
v -9 9 5
v -9 11 5
v -8 4 5
v -8 6 5
v -8 7 5
v -8 8 5
v -8 9 5
v -8 10 5
v -8 11 5
v -7 8 5
v -7 10 5
v 7 8 5
v 7 10 5
v 8 4 5
v 8 6 5
v 8 7 5
v 8 8 5
v 8 9 5
v 8 10 5
v 8 11 5
v 9 4 5
v 9 6 5
v 9 7 5
v 9 8 5
v 9 9 5
v 9 11 5
v 10 8 5
v 10 9 5
v -11 0 4
v -11 4 4
v -11 5 4
v -11 12 4
v -10 0 4
v -10 1 4
v -10 4 4
v -10 5 4
v -10 8 4
v -10 9 4
v -10 12 4
v -10 14 4
v -10 15 4
v -10 16 4
v -9 0 4
v -9 1 4
v -9 4 4
v -9 6 4
v -9 7 4
v -9 8 4
v -9 9 4
v -9 11 4
v -9 14 4
v -9 15 4
v -9 16 4
v -9 18 4
v -8 4 4
v -8 6 4
v -8 7 4
v -8 8 4
v -8 10 4
v -8 11 4
v -8 13 4
v -8 14 4
v -8 18 4
v -8 19 4
v -7 2 4
v -7 3 4
v -7 8 4
v -7 9 4
v -7 10 4
v -7 13 4
v -7 14 4
v -7 19 4
v -7 20 4
v -6 1 4
v -6 2 4
v -6 3 4
v -6 8 4
v -6 9 4
v -6 12 4
v -6 18 4
v -6 19 4
v -5 12 4
v -5 15 4
v -5 16 4
v -5 18 4
v -5 19 4
v -5 20 4
v -5 21 4
v -4 15 4
v -4 16 4
v -2 0 4
v -2 1 4
v -2 16 4
v -2 17 4
v -2 18 4
v -2 19 4
v -2 21 4
v -2 22 4
v -1 0 4
v -1 1 4
v -1 18 4
v -1 19 4
v 2 16 4
v 2 17 4
v 2 18 4
v 2 20 4
v 2 21 4
v 2 22 4
v 3 0 4
v 3 1 4
v 3 17 4
v 3 18 4
v 3 20 4
v 3 21 4
v 4 0 4
v 4 1 4
v 4 15 4
v 4 16 4
v 5 12 4
v 5 15 4
v 5 16 4
v 5 18 4
v 5 19 4
v 5 20 4
v 5 21 4
v 6 1 4
v 6 2 4
v 6 3 4
v 6 8 4
v 6 9 4
v 6 12 4
v 6 18 4
v 6 19 4
v 7 2 4
v 7 3 4
v 7 8 4
v 7 9 4
v 7 10 4
v 7 13 4
v 7 14 4
v 7 19 4
v 7 20 4
v 8 4 4
v 8 6 4
v 8 7 4
v 8 8 4
v 8 10 4
v 8 11 4
v 8 13 4
v 8 14 4
v 8 18 4
v 8 19 4
v 9 0 4
v 9 1 4
v 9 4 4
v 9 6 4
v 9 7 4
v 9 8 4
v 9 9 4
v 9 11 4
v 9 16 4
v 9 18 4
v 10 0 4
v 10 1 4
v 10 2 4
v 10 3 4
v 10 8 4
v 10 9 4
v 10 10 4
v 10 11 4
v 10 12 4
v 10 16 4
v 11 0 4
v 11 2 4
v 11 3 4
v 11 10 4
v 11 11 4
v 11 12 4
v -6 1 -4
v -6 12 -4
v -5 12 -4
v -5 15 -4
v -4 15 -4
v -4 16 -4
v -2 16 -4
v -2 17 -4
v 2 16 -4
v 2 17 -4
v 4 15 -4
v 4 16 -4
v 5 12 -4
v 5 15 -4
v 6 1 -4
v 6 12 -4
v -11 0 -5
v -11 12 -5
v -10 12 -5
v -10 16 -5
v -9 16 -5
v -9 18 -5
v -8 18 -5
v -8 19 -5
v -7 19 -5
v -7 20 -5
v -5 20 -5
v -5 21 -5
v -2 21 -5
v -2 22 -5
v 2 21 -5
v 2 22 -5
v 5 20 -5
v 5 21 -5
v 7 19 -5
v 7 20 -5
v 8 18 -5
v 8 19 -5
v 9 16 -5
v 9 18 -5
v 10 12 -5
v 10 16 -5
v 11 0 -5
v 11 12 -5
v -11 0 4
v -10 0 4
v -9 0 4
v -2 0 4
v -1 0 4
v 3 0 4
v 4 0 4
v 9 0 4
v 10 0 4
v 11 0 4
v -10 0 3
v -9 0 3
v -2 0 3
v -1 0 3
v 3 0 3
v 4 0 3
v 9 0 3
v 10 0 3
v -11 0 -5
v 11 0 -5
v -9 4 5
v -8 4 5
v 8 4 5
v 9 4 5
v -9 4 4
v -8 4 4
v 8 4 4
v 9 4 4
v -10 8 5
v -9 8 5
v -8 8 5
v -7 8 5
v 7 8 5
v 8 8 5
v 9 8 5
v 10 8 5
v -10 8 4
v -9 8 4
v -8 8 4
v -7 8 4
v 7 8 4
v 8 8 4
v 9 8 4
v 10 8 4
v -6 12 4
v -5 12 4
v 5 12 4
v 6 12 4
v -6 12 -4
v -5 12 -4
v 5 12 -4
v 6 12 -4
v -5 15 4
v -4 15 4
v 4 15 4
v 5 15 4
v -5 15 3
v -4 15 3
v 4 15 3
v 5 15 3
v -5 15 -2
v 5 15 -2
v -5 15 -3
v 5 15 -3
v -5 15 -4
v -4 15 -4
v 4 15 -4
v 5 15 -4
v -4 16 4
v -2 16 4
v 2 16 4
v 4 16 4
v -4 16 3
v 4 16 3
v -4 16 -4
v -2 16 -4
v 2 16 -4
v 4 16 -4
v -2 17 4
v 2 17 4
v -2 17 -4
v 2 17 -4
v -6 1 4
v -2 1 4
v -1 1 4
v 3 1 4
v 4 1 4
v 6 1 4
v -2 1 3
v -1 1 3
v 3 1 3
v 4 1 3
v -6 1 -4
v 6 1 -4
v -10 9 5
v -9 9 5
v 9 9 5
v 10 9 5
v -10 9 4
v -9 9 4
v 9 9 4
v 10 9 4
v -8 10 5
v -7 10 5
v 7 10 5
v 8 10 5
v -8 10 4
v -7 10 4
v 7 10 4
v 8 10 4
v -9 11 5
v -8 11 5
v 8 11 5
v 9 11 5
v -9 11 4
v -8 11 4
v 8 11 4
v 9 11 4
v -11 12 4
v -10 12 4
v 10 12 4
v 11 12 4
v -11 12 -5
v -10 12 -5
v 10 12 -5
v 11 12 -5
v -10 16 4
v -9 16 4
v 9 16 4
v 10 16 4
v -10 16 -5
v -9 16 -5
v 9 16 -5
v 10 16 -5
v -9 18 4
v -8 18 4
v 8 18 4
v 9 18 4
v -9 18 -5
v -8 18 -5
v 8 18 -5
v 9 18 -5
v -8 19 4
v -7 19 4
v 7 19 4
v 8 19 4
v -8 19 -5
v -7 19 -5
v 7 19 -5
v 8 19 -5
v -7 20 4
v -5 20 4
v 5 20 4
v 7 20 4
v -7 20 -5
v -5 20 -5
v 5 20 -5
v 7 20 -5
v -5 21 4
v -2 21 4
v 2 21 4
v 3 21 4
v 5 21 4
v 2 21 3
v 3 21 3
v -5 21 -5
v -2 21 -5
v 2 21 -5
v 5 21 -5
v -2 22 4
v 2 22 4
v -2 22 -5
v 2 22 -5

# faces
f 3/6/1 2/6/1 1/6/1
f 4/6/1 2/6/1 3/6/1
f 5/5/1 4/5/1 3/5/1
f 6/6/1 2/6/1 4/6/1
f 6/5/1 4/5/1 5/5/1
f 7/6/1 6/6/1 5/6/1
f 8/6/1 2/6/1 6/6/1
f 8/6/1 6/6/1 7/6/1
f 11/4/1 10/4/1 9/4/1
f 12/4/1 10/4/1 11/4/1
f 15/6/1 14/6/1 13/6/1
f 16/6/1 14/6/1 15/6/1
f 17/5/1 16/5/1 15/5/1
f 18/6/1 14/6/1 16/6/1
f 18/5/1 16/5/1 17/5/1
f 19/6/1 18/6/1 17/6/1
f 20/6/1 14/6/1 18/6/1
f 20/6/1 18/6/1 19/6/1
f 23/3/1 22/3/1 21/3/1
f 24/3/1 22/3/1 23/3/1
f 25/2/1 24/2/1 23/2/1
f 26/2/1 24/2/1 25/2/1
f 27/7/1 26/7/1 25/7/1
f 28/7/1 26/7/1 27/7/1
f 31/4/1 30/4/1 29/4/1
f 32/4/1 30/4/1 31/4/1
f 35/6/1 34/6/1 33/6/1
f 36/6/1 34/6/1 35/6/1
f 39/6/1 38/6/1 37/6/1
f 40/6/1 38/6/1 39/6/1
f 43/6/1 42/6/1 41/6/1
f 44/6/1 42/6/1 43/6/1
f 47/6/1 46/6/1 45/6/1
f 48/6/1 46/6/1 47/6/1
f 51/6/1 50/6/1 49/6/1
f 52/6/1 50/6/1 51/6/1
f 55/6/1 54/6/1 53/6/1
f 56/6/1 54/6/1 55/6/1
f 60/5/1 58/5/1 57/5/1
f 61/6/1 59/6/1 58/6/1
f 61/5/1 58/5/1 60/5/1
f 62/6/1 59/6/1 61/6/1
f 65/6/1 64/6/1 63/6/1
f 66/6/1 64/6/1 65/6/1
f 67/6/1 65/6/1 63/6/1
f 68/6/1 65/6/1 67/6/1
f 69/5/1 66/5/1 65/5/1
f 69/6/1 65/6/1 68/6/1
f 70/6/1 64/6/1 66/6/1
f 70/5/1 66/5/1 69/5/1
f 71/6/1 64/6/1 70/6/1
f 74/6/1 73/6/1 72/6/1
f 75/6/1 73/6/1 74/6/1
f 76/5/1 75/5/1 74/5/1
f 77/6/1 73/6/1 75/6/1
f 77/5/1 75/5/1 76/5/1
f 78/6/1 77/6/1 76/6/1
f 78/6/1 73/6/1 77/6/1
f 79/6/1 73/6/1 78/6/1
f 80/6/1 78/6/1 76/6/1
f 80/5/1 79/5/1 78/5/1
f 81/6/1 73/6/1 79/6/1
f 81/5/1 79/5/1 80/5/1
f 82/6/1 80/6/1 76/6/1
f 82/6/1 81/6/1 80/6/1
f 83/6/1 81/6/1 82/6/1
f 84/5/1 83/5/1 82/5/1
f 85/6/1 81/6/1 83/6/1
f 85/5/1 83/5/1 84/5/1
f 86/6/1 81/6/1 85/6/1
f 87/6/1 81/6/1 86/6/1
f 88/6/1 85/6/1 84/6/1
f 88/6/1 86/6/1 85/6/1
f 88/5/1 87/5/1 86/5/1
f 89/6/1 81/6/1 87/6/1
f 89/5/1 87/5/1 88/5/1
f 90/6/1 88/6/1 84/6/1
f 90/6/1 89/6/1 88/6/1
f 91/6/1 73/6/1 81/6/1
f 91/6/1 89/6/1 90/6/1
f 91/6/1 81/6/1 89/6/1
f 94/4/1 93/4/1 92/4/1
f 95/4/1 94/4/1 92/4/1
f 96/4/1 94/4/1 95/4/1
f 99/3/1 98/3/1 97/3/1
f 100/3/1 98/3/1 99/3/1
f 101/2/1 100/2/1 99/2/1
f 102/2/1 100/2/1 101/2/1
f 103/7/1 102/7/1 101/7/1
f 104/7/1 102/7/1 103/7/1
f 107/4/1 106/4/1 105/4/1
f 108/4/1 106/4/1 107/4/1
f 109/3/2 110/3/2 111/3/2
f 111/3/2 110/3/2 112/3/2
f 111/2/2 112/2/2 113/2/2
f 113/2/2 112/2/2 114/2/2
f 113/7/2 114/7/2 115/7/2
f 115/7/2 114/7/2 116/7/2
f 117/4/2 118/4/2 119/4/2
f 119/4/2 118/4/2 120/4/2
f 121/4/2 122/4/2 123/4/2
f 121/4/2 123/4/2 124/4/2
f 124/4/2 123/4/2 125/4/2
f 126/6/2 127/6/2 128/6/2
f 128/6/2 127/6/2 129/6/2
f 128/5/2 129/5/2 130/5/2
f 129/6/2 127/6/2 131/6/2
f 130/5/2 129/5/2 131/5/2
f 130/6/2 131/6/2 132/6/2
f 131/6/2 127/6/2 132/6/2
f 132/6/2 127/6/2 133/6/2
f 130/6/2 132/6/2 134/6/2
f 132/5/2 133/5/2 134/5/2
f 133/6/2 127/6/2 135/6/2
f 134/5/2 133/5/2 135/5/2
f 130/6/2 134/6/2 136/6/2
f 134/6/2 135/6/2 136/6/2
f 136/6/2 135/6/2 137/6/2
f 136/5/2 137/5/2 138/5/2
f 137/6/2 135/6/2 139/6/2
f 138/5/2 137/5/2 139/5/2
f 139/6/2 135/6/2 140/6/2
f 140/6/2 135/6/2 141/6/2
f 138/6/2 139/6/2 142/6/2
f 139/6/2 140/6/2 142/6/2
f 140/5/2 141/5/2 142/5/2
f 141/6/2 135/6/2 143/6/2
f 142/5/2 141/5/2 143/5/2
f 138/6/2 142/6/2 144/6/2
f 142/6/2 143/6/2 144/6/2
f 135/6/2 127/6/2 145/6/2
f 144/6/2 143/6/2 145/6/2
f 143/6/2 135/6/2 145/6/2
f 146/6/2 147/6/2 148/6/2
f 148/6/2 147/6/2 149/6/2
f 146/6/2 148/6/2 150/6/2
f 150/6/2 148/6/2 151/6/2
f 148/5/2 149/5/2 152/5/2
f 151/6/2 148/6/2 152/6/2
f 149/6/2 147/6/2 153/6/2
f 152/5/2 149/5/2 153/5/2
f 153/6/2 147/6/2 154/6/2
f 155/5/2 156/5/2 158/5/2
f 156/6/2 157/6/2 159/6/2
f 158/5/2 156/5/2 159/5/2
f 159/6/2 157/6/2 160/6/2
f 161/6/2 162/6/2 163/6/2
f 163/6/2 162/6/2 164/6/2
f 165/6/2 166/6/2 168/6/2
f 166/6/2 167/6/2 168/6/2
f 168/6/2 167/6/2 169/6/2
f 170/6/2 171/6/2 172/6/2
f 172/6/2 171/6/2 173/6/2
f 174/6/2 175/6/2 176/6/2
f 176/6/2 175/6/2 177/6/2
f 178/6/2 179/6/2 180/6/2
f 180/6/2 179/6/2 181/6/2
f 182/3/2 183/3/2 184/3/2
f 184/3/2 183/3/2 185/3/2
f 184/2/2 185/2/2 186/2/2
f 186/2/2 185/2/2 187/2/2
f 186/7/2 187/7/2 188/7/2
f 188/7/2 187/7/2 189/7/2
f 190/4/2 191/4/2 192/4/2
f 192/4/2 191/4/2 193/4/2
f 194/6/2 195/6/2 196/6/2
f 196/6/2 195/6/2 197/6/2
f 198/4/2 199/4/2 200/4/2
f 200/4/2 199/4/2 201/4/2
f 202/6/2 203/6/2 204/6/2
f 204/6/2 203/6/2 205/6/2
f 206/6/2 207/6/2 208/6/2
f 208/6/2 207/6/2 209/6/2
f 208/5/2 209/5/2 210/5/2
f 209/6/2 207/6/2 211/6/2
f 210/5/2 209/5/2 211/5/2
f 210/6/2 211/6/2 212/6/2
f 211/6/2 207/6/2 213/6/2
f 212/6/2 211/6/2 213/6/2
f 212/5/2 213/5/2 214/5/2
f 213/6/2 207/6/2 215/6/2
f 214/5/2 213/5/2 215/5/2
f 214/6/2 215/6/2 216/6/2
f 215/6/2 207/6/2 217/6/2
f 216/6/2 215/6/2 217/6/2
f 223/4/3 219/4/3 218/4/3
f 224/4/3 219/4/3 223/4/3
f 226/3/3 221/3/3 220/3/3
f 227/2/3 222/2/3 221/2/3
f 227/3/3 221/3/3 226/3/3
f 228/7/3 223/7/3 222/7/3
f 228/2/3 222/2/3 227/2/3
f 229/1/3 224/1/3 223/1/3
f 229/7/3 223/7/3 228/7/3
f 230/4/3 225/4/3 224/4/3
f 230/1/3 224/1/3 229/1/3
f 231/4/3 225/4/3 230/4/3
f 232/4/3 225/4/3 231/4/3
f 233/4/3 231/4/3 230/4/3
f 233/4/3 230/4/3 229/4/3
f 234/4/3 231/4/3 233/4/3
f 240/4/3 236/4/3 235/4/3
f 241/4/3 236/4/3 240/4/3
f 242/4/3 236/4/3 241/4/3
f 244/3/3 238/3/3 237/3/3
f 245/2/3 239/2/3 238/2/3
f 245/3/3 238/3/3 244/3/3
f 246/7/3 240/7/3 239/7/3
f 246/2/3 239/2/3 245/2/3
f 247/1/3 241/1/3 240/1/3
f 247/7/3 240/7/3 246/7/3
f 248/4/3 242/4/3 241/4/3
f 248/1/3 241/1/3 247/1/3
f 248/4/3 243/4/3 242/4/3
f 249/4/3 243/4/3 248/4/3
f 250/4/3 248/4/3 247/4/3
f 251/4/3 248/4/3 250/4/3
f 256/6/3 253/6/3 252/6/3
f 257/6/3 253/6/3 256/6/3
f 258/5/3 254/5/3 253/5/3
f 258/6/3 253/6/3 257/6/3
f 259/6/3 255/6/3 254/6/3
f 259/5/3 254/5/3 258/5/3
f 260/6/3 255/6/3 259/6/3
f 261/6/3 255/6/3 260/6/3
f 262/6/3 255/6/3 261/6/3
f 266/5/3 257/5/3 256/5/3
f 267/6/3 258/6/3 257/6/3
f 267/5/3 257/5/3 266/5/3
f 267/6/3 259/6/3 258/6/3
f 267/6/3 260/6/3 259/6/3
f 268/6/3 260/6/3 267/6/3
f 269/6/3 260/6/3 268/6/3
f 270/6/3 260/6/3 269/6/3
f 271/6/3 260/6/3 270/6/3
f 272/6/3 263/6/3 262/6/3
f 272/6/3 262/6/3 261/6/3
f 273/6/3 263/6/3 272/6/3
f 274/5/3 264/5/3 263/5/3
f 274/6/3 263/6/3 273/6/3
f 275/6/3 265/6/3 264/6/3
f 275/5/3 264/5/3 274/5/3
f 276/6/3 265/6/3 275/6/3
f 278/6/3 267/6/3 266/6/3
f 278/6/3 268/6/3 267/6/3
f 283/6/3 274/6/3 273/6/3
f 283/6/3 277/6/3 276/6/3
f 283/6/3 276/6/3 275/6/3
f 283/6/3 275/6/3 274/6/3
f 284/6/3 277/6/3 283/6/3
f 285/6/3 277/6/3 284/6/3
f 286/6/3 277/6/3 285/6/3
f 288/6/3 281/6/3 280/6/3
f 288/6/3 280/6/3 279/6/3
f 288/6/3 279/6/3 278/6/3
f 288/6/3 278/6/3 266/6/3
f 289/6/3 281/6/3 288/6/3
f 290/6/3 281/6/3 289/6/3
f 292/6/3 284/6/3 283/6/3
f 292/6/3 283/6/3 282/6/3
f 293/5/3 285/5/3 284/5/3
f 293/6/3 284/6/3 292/6/3
f 294/6/3 287/6/3 286/6/3
f 294/5/3 285/5/3 293/5/3
f 294/6/3 286/6/3 285/6/3
f 295/6/3 287/6/3 294/6/3
f 297/6/3 288/6/3 266/6/3
f 298/5/3 289/5/3 288/5/3
f 298/6/3 288/6/3 297/6/3
f 299/6/3 290/6/3 289/6/3
f 299/5/3 289/5/3 298/5/3
f 300/5/3 291/5/3 290/5/3
f 300/6/3 290/6/3 299/6/3
f 301/6/3 293/6/3 292/6/3
f 301/5/3 291/5/3 300/5/3
f 301/6/3 292/6/3 291/6/3
f 301/6/3 295/6/3 294/6/3
f 301/6/3 294/6/3 293/6/3
f 301/6/3 296/6/3 295/6/3
f 302/6/3 296/6/3 301/6/3
f 303/6/3 296/6/3 302/6/3
f 304/6/3 296/6/3 303/6/3
f 305/6/3 303/6/3 302/6/3
f 306/6/3 303/6/3 305/6/3
f 307/6/3 303/6/3 306/6/3
f 308/5/3 304/5/3 303/5/3
f 308/6/3 303/6/3 307/6/3
f 309/6/3 296/6/3 304/6/3
f 309/5/3 304/5/3 308/5/3
f 310/6/3 296/6/3 309/6/3
f 312/5/3 307/5/3 306/5/3
f 313/6/3 308/6/3 307/6/3
f 313/5/3 307/5/3 312/5/3
f 313/6/3 311/6/3 310/6/3
f 313/6/3 309/6/3 308/6/3
f 313/6/3 310/6/3 309/6/3
f 314/6/3 297/6/3 266/6/3
f 315/6/3 297/6/3 314/6/3
f 316/6/3 311/6/3 313/6/3
f 317/6/3 311/6/3 316/6/3
f 318/6/3 311/6/3 317/6/3
f 319/6/3 311/6/3 318/6/3
f 320/6/3 311/6/3 319/6/3
f 322/5/3 315/5/3 314/5/3
f 323/5/3 315/5/3 322/5/3
f 324/6/3 318/6/3 317/6/3
f 324/5/3 319/5/3 318/5/3
f 325/6/3 321/6/3 320/6/3
f 325/5/3 319/5/3 324/5/3
f 325/6/3 320/6/3 319/6/3
f 327/6/3 324/6/3 317/6/3
f 327/6/3 325/6/3 324/6/3
f 328/6/3 325/6/3 327/6/3
f 329/6/3 321/6/3 325/6/3
f 329/6/3 325/6/3 328/6/3
f 330/6/3 321/6/3 329/6/3
f 331/6/3 321/6/3 330/6/3
f 332/6/3 323/6/3 322/6/3
f 333/6/3 323/6/3 332/6/3
f 334/5/3 328/5/3 327/5/3
f 334/6/3 327/6/3 326/6/3
f 335/6/3 329/6/3 328/6/3
f 335/5/3 328/5/3 334/5/3
f 336/5/3 330/5/3 329/5/3
f 336/6/3 329/6/3 335/6/3
f 337/5/3 330/5/3 336/5/3
f 338/5/3 333/5/3 332/5/3
f 339/5/3 333/5/3 338/5/3
f 341/6/3 334/6/3 326/6/3
f 341/6/3 335/6/3 334/6/3
f 341/6/3 336/6/3 335/6/3
f 341/6/3 337/6/3 336/6/3
f 343/5/3 341/5/3 340/5/3
f 344/6/3 337/6/3 341/6/3
f 344/5/3 341/5/3 343/5/3
f 345/6/3 337/6/3 344/6/3
f 346/6/3 337/6/3 345/6/3
f 347/6/3 337/6/3 346/6/3
f 348/6/3 337/6/3 347/6/3
f 349/6/3 339/6/3 338/6/3
f 354/6/3 343/6/3 342/6/3
f 354/6/3 344/6/3 343/6/3
f 354/6/3 345/6/3 344/6/3
f 355/5/3 346/5/3 345/5/3
f 355/6/3 345/6/3 354/6/3
f 356/6/3 347/6/3 346/6/3
f 356/5/3 346/5/3 355/5/3
f 357/5/3 351/5/3 350/5/3
f 357/6/3 350/6/3 349/6/3
f 358/6/3 352/6/3 351/6/3
f 358/5/3 351/5/3 357/5/3
f 359/5/3 353/5/3 352/5/3
f 359/6/3 352/6/3 358/6/3
f 360/6/3 354/6/3 353/6/3
f 360/5/3 353/5/3 359/5/3
f 360/6/3 355/6/3 354/6/3
f 360/6/3 356/6/3 355/6/3
f 361/6/3 356/6/3 360/6/3
f 362/6/3 356/6/3 361/6/3
f 363/6/3 356/6/3 362/6/3
f 364/6/3 347/6/3 356/6/3
f 364/6/3 356/6/3 363/6/3
f 365/6/3 347/6/3 364/6/3
f 366/6/3 358/6/3 357/6/3
f 366/6/3 359/6/3 358/6/3
f 367/6/3 359/6/3 366/6/3
f 368/6/3 359/6/3 367/6/3
f 369/6/3 359/6/3 368/6/3
f 370/6/3 362/6/3 361/6/3
f 371/6/3 362/6/3 370/6/3
f 372/5/3 363/5/3 362/5/3
f 372/6/3 362/6/3 371/6/3
f 373/6/3 364/6/3 363/6/3
f 373/5/3 363/5/3 372/5/3
f 374/6/3 364/6/3 373/6/3
f 375/6/3 364/6/3 374/6/3
f 376/6/3 357/6/3 349/6/3
f 376/6/3 349/6/3 338/6/3
f 376/6/3 366/6/3 357/6/3
f 377/6/3 366/6/3 376/6/3
f 378/6/3 366/6/3 377/6/3
f 383/6/3 374/6/3 373/6/3
f 383/6/3 372/6/3 371/6/3
f 383/6/3 373/6/3 372/6/3
f 384/6/3 374/6/3 383/6/3
f 385/6/3 374/6/3 384/6/3
f 386/5/3 377/5/3 376/5/3
f 387/6/3 381/6/3 380/6/3
f 387/5/3 377/5/3 386/5/3
f 387/6/3 380/6/3 379/6/3
f 387/6/3 379/6/3 378/6/3
f 387/6/3 378/6/3 377/6/3
f 388/6/3 381/6/3 387/6/3
f 389/6/3 381/6/3 388/6/3
f 390/6/3 381/6/3 389/6/3
f 391/6/3 384/6/3 383/6/3
f 391/6/3 383/6/3 382/6/3
f 392/6/3 384/6/3 391/6/3
f 393/6/3 384/6/3 392/6/3
f 394/6/3 384/6/3 393/6/3
f 395/6/3 384/6/3 394/6/3
f 396/6/3 387/6/3 386/6/3
f 396/6/3 388/6/3 387/6/3
f 397/5/3 389/5/3 388/5/3
f 397/6/3 388/6/3 396/6/3
f 398/6/3 390/6/3 389/6/3
f 398/5/3 389/5/3 397/5/3
f 398/6/3 391/6/3 390/6/3
f 398/6/3 392/6/3 391/6/3
f 399/5/3 393/5/3 392/5/3
f 399/6/3 392/6/3 398/6/3
f 400/6/3 394/6/3 393/6/3
f 400/5/3 393/5/3 399/5/3
f 401/6/3 394/6/3 400/6/3
f 404/6/3 403/6/3 402/6/3
f 406/6/3 405/6/3 404/6/3
f 408/6/3 407/6/3 406/6/3
f 410/6/3 408/6/3 406/6/3
f 410/6/3 409/6/3 408/6/3
f 411/6/3 409/6/3 410/6/3
f 412/6/3 406/6/3 404/6/3
f 412/6/3 410/6/3 406/6/3
f 413/6/3 410/6/3 412/6/3
f 414/6/3 404/6/3 402/6/3
f 414/6/3 412/6/3 404/6/3
f 415/6/3 412/6/3 414/6/3
f 416/6/3 414/6/3 402/6/3
f 417/6/3 414/6/3 416/6/3
f 418/6/4 419/6/4 420/6/4
f 420/6/4 421/6/4 422/6/4
f 422/6/4 423/6/4 424/6/4
f 424/6/4 425/6/4 426/6/4
f 426/6/4 427/6/4 428/6/4
f 428/6/4 429/6/4 430/6/4
f 428/6/4 430/6/4 432/6/4
f 430/6/4 431/6/4 432/6/4
f 432/6/4 431/6/4 433/6/4
f 426/6/4 428/6/4 434/6/4
f 428/6/4 432/6/4 434/6/4
f 434/6/4 432/6/4 435/6/4
f 424/6/4 426/6/4 436/6/4
f 426/6/4 434/6/4 436/6/4
f 436/6/4 434/6/4 437/6/4
f 422/6/4 424/6/4 438/6/4
f 424/6/4 436/6/4 438/6/4
f 438/6/4 436/6/4 439/6/4
f 420/6/4 422/6/4 440/6/4
f 422/6/4 438/6/4 440/6/4
f 440/6/4 438/6/4 441/6/4
f 418/6/4 420/6/4 442/6/4
f 420/6/4 440/6/4 442/6/4
f 442/6/4 440/6/4 443/6/4
f 418/6/4 442/6/4 444/6/4
f 444/6/4 442/6/4 445/6/4
f 456/6/5 447/6/5 446/6/5
f 456/5/5 448/5/5 447/5/5
f 457/6/5 449/6/5 448/6/5
f 457/5/5 448/5/5 456/5/5
f 458/5/5 450/5/5 449/5/5
f 458/6/5 449/6/5 457/6/5
f 459/6/5 451/6/5 450/6/5
f 459/5/5 450/5/5 458/5/5
f 460/5/5 452/5/5 451/5/5
f 460/6/5 451/6/5 459/6/5
f 461/6/5 453/6/5 452/6/5
f 461/5/5 452/5/5 460/5/5
f 462/5/5 454/5/5 453/5/5
f 462/6/5 453/6/5 461/6/5
f 463/6/5 455/6/5 454/6/5
f 463/5/5 454/5/5 462/5/5
f 464/6/5 462/6/5 461/6/5
f 464/6/5 461/6/5 460/6/5
f 464/6/5 463/6/5 462/6/5
f 464/6/5 460/6/5 459/6/5
f 464/6/5 459/6/5 458/6/5
f 464/6/5 458/6/5 457/6/5
f 464/6/5 457/6/5 456/6/5
f 464/6/5 456/6/5 446/6/5
f 465/6/5 455/6/5 463/6/5
f 465/6/5 463/6/5 464/6/5
f 470/3/5 467/3/5 466/3/5
f 471/3/5 467/3/5 470/3/5
f 472/3/5 469/3/5 468/3/5
f 473/3/5 469/3/5 472/3/5
f 482/4/5 475/4/5 474/4/5
f 483/4/5 475/4/5 482/4/5
f 484/4/5 477/4/5 476/4/5
f 485/4/5 477/4/5 484/4/5
f 486/4/5 479/4/5 478/4/5
f 487/4/5 479/4/5 486/4/5
f 488/4/5 481/4/5 480/4/5
f 489/4/5 481/4/5 488/4/5
f 494/6/5 491/6/5 490/6/5
f 495/6/5 491/6/5 494/6/5
f 496/6/5 493/6/5 492/6/5
f 497/6/5 493/6/5 496/6/5
f 502/5/5 499/5/5 498/5/5
f 503/5/5 499/5/5 502/5/5
f 504/5/5 501/5/5 500/5/5
f 505/5/5 501/5/5 504/5/5
f 506/6/5 503/6/5 502/6/5
f 507/6/5 505/6/5 504/6/5
f 508/6/5 503/6/5 506/6/5
f 509/6/5 507/6/5 504/6/5
f 510/6/5 503/6/5 508/6/5
f 511/6/5 503/6/5 510/6/5
f 512/6/5 509/6/5 504/6/5
f 513/6/5 509/6/5 512/6/5
f 518/6/5 515/6/5 514/6/5
f 519/6/5 517/6/5 516/6/5
f 520/6/5 515/6/5 518/6/5
f 521/6/5 515/6/5 520/6/5
f 522/6/5 519/6/5 516/6/5
f 523/6/5 519/6/5 522/6/5
f 526/6/5 525/6/5 524/6/5
f 527/6/5 525/6/5 526/6/5
f 528/6/6 529/6/6 534/6/6
f 529/5/6 530/5/6 534/5/6
f 530/6/6 531/6/6 535/6/6
f 534/5/6 530/5/6 535/5/6
f 531/5/6 532/5/6 536/5/6
f 535/6/6 531/6/6 536/6/6
f 532/6/6 533/6/6 537/6/6
f 536/5/6 532/5/6 537/5/6
f 535/6/6 536/6/6 538/6/6
f 534/6/6 535/6/6 538/6/6
f 536/6/6 537/6/6 538/6/6
f 528/6/6 534/6/6 538/6/6
f 537/6/6 533/6/6 539/6/6
f 538/6/6 537/6/6 539/6/6
f 540/4/6 541/4/6 544/4/6
f 544/4/6 541/4/6 545/4/6
f 542/4/6 543/4/6 546/4/6
f 546/4/6 543/4/6 547/4/6
f 548/4/6 549/4/6 552/4/6
f 552/4/6 549/4/6 553/4/6
f 550/4/6 551/4/6 554/4/6
f 554/4/6 551/4/6 555/4/6
f 556/4/6 557/4/6 560/4/6
f 560/4/6 557/4/6 561/4/6
f 558/4/6 559/4/6 562/4/6
f 562/4/6 559/4/6 563/4/6
f 564/6/6 565/6/6 568/6/6
f 568/6/6 565/6/6 569/6/6
f 566/6/6 567/6/6 570/6/6
f 570/6/6 567/6/6 571/6/6
f 572/6/6 573/6/6 576/6/6
f 576/6/6 573/6/6 577/6/6
f 574/6/6 575/6/6 578/6/6
f 578/6/6 575/6/6 579/6/6
f 580/6/6 581/6/6 584/6/6
f 584/6/6 581/6/6 585/6/6
f 582/6/6 583/6/6 586/6/6
f 586/6/6 583/6/6 587/6/6
f 588/6/6 589/6/6 592/6/6
f 592/6/6 589/6/6 593/6/6
f 590/6/6 591/6/6 594/6/6
f 594/6/6 591/6/6 595/6/6
f 596/6/6 597/6/6 600/6/6
f 600/6/6 597/6/6 601/6/6
f 598/6/6 599/6/6 602/6/6
f 602/6/6 599/6/6 603/6/6
f 606/5/6 607/5/6 609/5/6
f 607/6/6 608/6/6 610/6/6
f 609/5/6 607/5/6 610/5/6
f 604/6/6 605/6/6 611/6/6
f 611/6/6 605/6/6 612/6/6
f 609/6/6 610/6/6 613/6/6
f 610/6/6 608/6/6 614/6/6
f 613/6/6 610/6/6 614/6/6
f 615/6/6 616/6/6 617/6/6
f 617/6/6 616/6/6 618/6/6
