# MagicaVoxel @ Ephtracy

# group
g player1Head

# material
mtllib player1Head.mtl
usemtl palette

# normals
vn -1 0 0
vn 1 0 0
vn 0 0 1
vn 0 0 -1
vn 0 -1 0
vn 0 1 0

# texcoords
vt 0.0605469 0.5
vt 0.255859 0.5
vt 0.958984 0.5
vt 0.994141 0.5

# verts
v -10 15 3
v -10 15 -2
v -10 20 3
v -10 20 -2
v -9 15 6
v -9 15 3
v -9 15 -2
v -9 15 -6
v -9 20 3
v -9 20 -2
v -9 22 7
v -9 22 6
v -9 23 7
v -9 23 6
v -9 25 6
v -9 25 -6
v -8 14 6
v -8 14 -5
v -8 14 -6
v -8 15 6
v -8 15 3
v -8 15 -2
v -8 15 -5
v -8 15 -6
v -8 23 7
v -8 23 6
v -8 25 7
v -8 25 6
v -8 25 -6
v -8 26 6
v -8 26 -6
v -7 13 6
v -7 13 -6
v -7 14 6
v -7 14 -5
v -7 14 -6
v -7 14 -7
v -7 25 7
v -7 25 6
v -7 25 -6
v -7 25 -7
v -7 26 7
v -7 26 6
v -7 26 -6
v -7 27 6
v -7 27 -6
v -6 14 7
v -6 14 6
v -6 16 7
v -6 16 6
v -6 21 7
v -6 21 6
v -6 22 7
v -6 22 6
v -5 13 7
v -5 13 6
v -5 14 7
v -5 14 6
v -5 27 4
v -5 27 -4
v -5 28 4
v -5 28 -4
v -4 16 -7
v -4 16 -8
v -4 23 -7
v -4 23 -8
v -3 12 7
v -3 12 5
v -3 13 7
v -3 13 6
v -3 13 5
v -3 15 7
v -3 15 6
v -3 16 7
v -3 16 6
v -3 20 7
v -3 20 6
v -3 21 7
v -3 21 6
v -2 10 7
v -2 10 6
v -2 12 7
v -2 12 6
v -2 16 7
v -2 16 6
v -2 17 7
v -2 17 6
v -2 18 -8
v -2 18 -9
v -2 21 -8
v -2 21 -9
v -2 28 2
v -2 28 -2
v -2 29 2
v -2 29 -2
v -1 8 7
v -1 8 6
v -1 10 7
v -1 10 6
v 2 14 7
v 2 14 6
v 2 15 7
v 2 15 6
v 2 20 7
v 2 20 6
v 2 21 7
v 2 21 6
v 3 13 7
v 3 13 6
v 3 14 7
v 3 14 6
v 3 21 7
v 3 21 6
v 3 22 7
v 3 22 6
v 5 15 7
v 5 15 6
v 5 16 7
v 5 16 6
v 6 23 7
v 6 23 6
v 6 25 7
v 6 25 6
v 7 22 7
v 7 22 6
v 7 23 7
v 7 23 6
v -7 22 7
v -7 22 6
v -7 23 7
v -7 23 6
v -6 23 7
v -6 23 6
v -6 25 7
v -6 25 6
v -5 15 7
v -5 15 6
v -5 16 7
v -5 16 6
v -3 13 7
v -3 13 6
v -3 14 7
v -3 14 6
v -3 21 7
v -3 21 6
v -3 22 7
v -3 22 6
v -2 14 7
v -2 14 6
v -2 15 7
v -2 15 6
v -2 20 7
v -2 20 6
v -2 21 7
v -2 21 6
v 1 8 7
v 1 8 6
v 1 10 7
v 1 10 6
v 2 10 7
v 2 10 6
v 2 12 7
v 2 12 6
v 2 16 7
v 2 16 6
v 2 17 7
v 2 17 6
v 2 18 -8
v 2 18 -9
v 2 21 -8
v 2 21 -9
v 2 28 2
v 2 28 -2
v 2 29 2
v 2 29 -2
v 3 12 7
v 3 12 5
v 3 13 7
v 3 13 6
v 3 13 5
v 3 15 7
v 3 15 6
v 3 16 7
v 3 16 6
v 3 20 7
v 3 20 6
v 3 21 7
v 3 21 6
v 4 16 -7
v 4 16 -8
v 4 23 -7
v 4 23 -8
v 5 13 7
v 5 13 6
v 5 14 7
v 5 14 6
v 5 27 4
v 5 27 -4
v 5 28 4
v 5 28 -4
v 6 14 7
v 6 14 6
v 6 16 7
v 6 16 6
v 6 21 7
v 6 21 6
v 6 22 7
v 6 22 6
v 7 13 6
v 7 13 -6
v 7 14 6
v 7 14 -5
v 7 14 -6
v 7 14 -7
v 7 25 7
v 7 25 6
v 7 25 -6
v 7 25 -7
v 7 26 7
v 7 26 6
v 7 26 -6
v 7 27 6
v 7 27 -6
v 8 14 6
v 8 14 -5
v 8 14 -6
v 8 15 6
v 8 15 3
v 8 15 -1
v 8 15 -5
v 8 15 -6
v 8 23 7
v 8 23 6
v 8 25 7
v 8 25 6
v 8 25 -6
v 8 26 6
v 8 26 -6
v 9 15 6
v 9 15 3
v 9 15 -1
v 9 15 -6
v 9 20 3
v 9 20 -1
v 9 22 7
v 9 22 6
v 9 23 7
v 9 23 6
v 9 25 6
v 9 25 -6
v 10 15 3
v 10 15 -1
v 10 20 3
v 10 20 -1
v -9 22 7
v -9 23 7
v -8 23 7
v -8 25 7
v -7 22 7
v -7 23 7
v -7 25 7
v -7 26 7
v -6 14 7
v -6 16 7
v -6 21 7
v -6 22 7
v -6 23 7
v -6 25 7
v -5 13 7
v -5 14 7
v -5 15 7
v -5 16 7
v -3 12 7
v -3 13 7
v -3 14 7
v -3 15 7
v -3 16 7
v -3 20 7
v -3 21 7
v -3 22 7
v -2 10 7
v -2 12 7
v -2 14 7
v -2 15 7
v -2 16 7
v -2 17 7
v -2 20 7
v -2 21 7
v -1 8 7
v -1 10 7
v 1 8 7
v 1 10 7
v 2 10 7
v 2 12 7
v 2 14 7
v 2 15 7
v 2 16 7
v 2 17 7
v 2 20 7
v 2 21 7
v 3 12 7
v 3 13 7
v 3 14 7
v 3 15 7
v 3 16 7
v 3 20 7
v 3 21 7
v 3 22 7
v 5 13 7
v 5 14 7
v 5 15 7
v 5 16 7
v 6 14 7
v 6 16 7
v 6 21 7
v 6 22 7
v 6 23 7
v 6 25 7
v 7 22 7
v 7 23 7
v 7 25 7
v 7 26 7
v 8 23 7
v 8 25 7
v 9 22 7
v 9 23 7
v -9 15 6
v -9 22 6
v -9 23 6
v -9 25 6
v -8 14 6
v -8 15 6
v -8 22 6
v -8 23 6
v -8 25 6
v -8 26 6
v -7 13 6
v -7 14 6
v -7 22 6
v -7 23 6
v -7 25 6
v -7 26 6
v -7 27 6
v -6 14 6
v -6 16 6
v -6 21 6
v -6 22 6
v -6 23 6
v -6 25 6
v -5 13 6
v -5 14 6
v -5 15 6
v -5 16 6
v -5 18 6
v -5 21 6
v -4 19 6
v -4 20 6
v -3 13 6
v -3 14 6
v -3 15 6
v -3 16 6
v -3 19 6
v -3 20 6
v -3 21 6
v -3 22 6
v -2 14 6
v -2 15 6
v -2 16 6
v -2 17 6
v -2 18 6
v -2 20 6
v -2 21 6
v 2 14 6
v 2 15 6
v 2 16 6
v 2 17 6
v 2 18 6
v 2 20 6
v 2 21 6
v 3 13 6
v 3 14 6
v 3 15 6
v 3 16 6
v 3 19 6
v 3 20 6
v 3 21 6
v 3 22 6
v 4 19 6
v 4 20 6
v 5 13 6
v 5 14 6
v 5 15 6
v 5 16 6
v 5 18 6
v 5 21 6
v 6 14 6
v 6 16 6
v 6 21 6
v 6 22 6
v 6 23 6
v 6 25 6
v 7 13 6
v 7 14 6
v 7 22 6
v 7 23 6
v 7 25 6
v 7 26 6
v 7 27 6
v 8 14 6
v 8 15 6
v 8 22 6
v 8 23 6
v 8 25 6
v 8 26 6
v 9 15 6
v 9 22 6
v 9 23 6
v 9 25 6
v -5 27 4
v -5 28 4
v 5 27 4
v 5 28 4
v -10 15 3
v -10 20 3
v -9 15 3
v -9 20 3
v 9 15 3
v 9 20 3
v 10 15 3
v 10 20 3
v -2 28 2
v -2 29 2
v 2 28 2
v 2 29 2
v -2 10 6
v -2 12 6
v -1 8 6
v -1 10 6
v 1 8 6
v 1 10 6
v 2 10 6
v 2 12 6
v -3 12 5
v -3 13 5
v 3 12 5
v 3 13 5
v 9 15 -1
v 9 20 -1
v 10 15 -1
v 10 20 -1
v -10 15 -2
v -10 20 -2
v -9 15 -2
v -9 20 -2
v -2 28 -2
v -2 29 -2
v 2 28 -2
v 2 29 -2
v -5 27 -4
v -5 28 -4
v 5 27 -4
v 5 28 -4
v -9 15 -6
v -9 25 -6
v -8 14 -6
v -8 15 -6
v -8 25 -6
v -8 26 -6
v -7 13 -6
v -7 14 -6
v -7 25 -6
v -7 26 -6
v -7 27 -6
v 7 13 -6
v 7 14 -6
v 7 25 -6
v 7 26 -6
v 7 27 -6
v 8 14 -6
v 8 15 -6
v 8 25 -6
v 8 26 -6
v 9 15 -6
v 9 25 -6
v -7 14 -7
v -7 25 -7
v -4 16 -7
v -4 23 -7
v 4 16 -7
v 4 23 -7
v 7 14 -7
v 7 25 -7
v -4 16 -8
v -4 23 -8
v -2 18 -8
v -2 21 -8
v 2 18 -8
v 2 21 -8
v 4 16 -8
v 4 23 -8
v -2 18 -9
v -2 21 -9
v 2 18 -9
v 2 21 -9
v -1 8 7
v 1 8 7
v -1 8 6
v 1 8 6
v -2 10 7
v -1 10 7
v 1 10 7
v 2 10 7
v -2 10 6
v -1 10 6
v 1 10 6
v 2 10 6
v -3 12 7
v -2 12 7
v 2 12 7
v 3 12 7
v -2 12 6
v 2 12 6
v -3 12 5
v 3 12 5
v -5 13 7
v -3 13 7
v 3 13 7
v 5 13 7
v -7 13 6
v -5 13 6
v -3 13 6
v 3 13 6
v 5 13 6
v 7 13 6
v -3 13 5
v 3 13 5
v -7 13 -6
v 7 13 -6
v -6 14 7
v -5 14 7
v -3 14 7
v -2 14 7
v 2 14 7
v 3 14 7
v 5 14 7
v 6 14 7
v -8 14 6
v -7 14 6
v -6 14 6
v -5 14 6
v -3 14 6
v -2 14 6
v 2 14 6
v 3 14 6
v 5 14 6
v 6 14 6
v 7 14 6
v 8 14 6
v -8 14 -5
v -7 14 -5
v 7 14 -5
v 8 14 -5
v -8 14 -6
v -7 14 -6
v 7 14 -6
v 8 14 -6
v -7 14 -7
v 7 14 -7
v -2 15 7
v 2 15 7
v -9 15 6
v -8 15 6
v -2 15 6
v 2 15 6
v 8 15 6
v 9 15 6
v -10 15 3
v -9 15 3
v -8 15 3
v 8 15 3
v 9 15 3
v 10 15 3
v 8 15 -1
v 9 15 -1
v 10 15 -1
v -10 15 -2
v -9 15 -2
v -8 15 -2
v -8 15 -5
v 8 15 -5
v -9 15 -6
v -8 15 -6
v 8 15 -6
v 9 15 -6
v -4 16 -7
v 4 16 -7
v -4 16 -8
v 4 16 -8
v -2 18 -8
v 2 18 -8
v -2 18 -9
v 2 18 -9
v -3 20 7
v -2 20 7
v 2 20 7
v 3 20 7
v -3 20 6
v -2 20 6
v 2 20 6
v 3 20 6
v -6 21 7
v -3 21 7
v 3 21 7
v 6 21 7
v -6 21 6
v -5 21 6
v -3 21 6
v 3 21 6
v 5 21 6
v 6 21 6
v -9 22 7
v -7 22 7
v 7 22 7
v 9 22 7
v -9 22 6
v -8 22 6
v -7 22 6
v 7 22 6
v 8 22 6
v 9 22 6
v -7 23 7
v -6 23 7
v 6 23 7
v 7 23 7
v -7 23 6
v -6 23 6
v 6 23 6
v 7 23 6
v -6 25 7
v 6 25 7
v -6 25 6
v 6 25 6
v -3 13 7
v 3 13 7
v -3 13 6
v 3 13 6
v -5 15 7
v -3 15 7
v 3 15 7
v 5 15 7
v -5 15 6
v -3 15 6
v 3 15 6
v 5 15 6
v -6 16 7
v -5 16 7
v -3 16 7
v -2 16 7
v 2 16 7
v 3 16 7
v 5 16 7
v 6 16 7
v -6 16 6
v -5 16 6
v -3 16 6
v -2 16 6
v 2 16 6
v 3 16 6
v 5 16 6
v 6 16 6
v -2 17 7
v 2 17 7
v -2 17 6
v 2 17 6
v -10 20 3
v -9 20 3
v 9 20 3
v 10 20 3
v 9 20 -1
v 10 20 -1
v -10 20 -2
v -9 20 -2
v -3 21 7
v -2 21 7
v 2 21 7
v 3 21 7
v -3 21 6
v -2 21 6
v 2 21 6
v 3 21 6
v -2 21 -8
v 2 21 -8
v -2 21 -9
v 2 21 -9
v -6 22 7
v -3 22 7
v 3 22 7
v 6 22 7
v -6 22 6
v -3 22 6
v 3 22 6
v 6 22 6
v -9 23 7
v -8 23 7
v 8 23 7
v 9 23 7
v -9 23 6
v -8 23 6
v 8 23 6
v 9 23 6
v -4 23 -7
v 4 23 -7
v -4 23 -8
v 4 23 -8
v -8 25 7
v -7 25 7
v 7 25 7
v 8 25 7
v -9 25 6
v -8 25 6
v -7 25 6
v 7 25 6
v 8 25 6
v 9 25 6
v -9 25 -6
v -8 25 -6
v -7 25 -6
v 7 25 -6
v 8 25 -6
v 9 25 -6
v -7 25 -7
v 7 25 -7
v -7 26 7
v 7 26 7
v -8 26 6
v -7 26 6
v 7 26 6
v 8 26 6
v -8 26 -6
v -7 26 -6
v 7 26 -6
v 8 26 -6
v -7 27 6
v 7 27 6
v -5 27 4
v 5 27 4
v -5 27 -4
v 5 27 -4
v -7 27 -6
v 7 27 -6
v -5 28 4
v 5 28 4
v -2 28 2
v 2 28 2
v -2 28 -2
v 2 28 -2
v -5 28 -4
v 5 28 -4
v -2 29 2
v 2 29 2
v -2 29 -2
v 2 29 -2

# faces
f 3/1/1 2/1/1 1/1/1
f 4/1/1 2/1/1 3/1/1
f 9/2/1 6/2/1 5/2/1
f 10/2/1 8/2/1 7/2/1
f 12/2/1 9/2/1 5/2/1
f 12/2/1 10/2/1 9/2/1
f 13/2/1 12/2/1 11/2/1
f 14/2/1 10/2/1 12/2/1
f 14/2/1 12/2/1 13/2/1
f 15/2/1 10/2/1 14/2/1
f 16/2/1 8/2/1 10/2/1
f 16/2/1 10/2/1 15/2/1
f 20/1/1 18/1/1 17/1/1
f 21/1/1 18/1/1 20/1/1
f 22/1/1 18/1/1 21/1/1
f 23/2/1 19/2/1 18/2/1
f 23/1/1 18/1/1 22/1/1
f 24/2/1 19/2/1 23/2/1
f 27/2/1 26/2/1 25/2/1
f 28/2/1 26/2/1 27/2/1
f 30/2/1 29/2/1 28/2/1
f 31/2/1 29/2/1 30/2/1
f 34/1/1 33/1/1 32/1/1
f 35/1/1 33/1/1 34/1/1
f 36/1/1 33/1/1 35/1/1
f 40/2/1 37/2/1 36/2/1
f 41/2/1 37/2/1 40/2/1
f 42/2/1 39/2/1 38/2/1
f 43/2/1 39/2/1 42/2/1
f 45/2/1 44/2/1 43/2/1
f 46/2/1 44/2/1 45/2/1
f 49/2/1 48/2/1 47/2/1
f 50/2/1 48/2/1 49/2/1
f 53/2/1 52/2/1 51/2/1
f 54/2/1 52/2/1 53/2/1
f 57/2/1 56/2/1 55/2/1
f 58/2/1 56/2/1 57/2/1
f 61/2/1 60/2/1 59/2/1
f 62/2/1 60/2/1 61/2/1
f 65/2/1 64/2/1 63/2/1
f 66/2/1 64/2/1 65/2/1
f 69/2/1 68/2/1 67/2/1
f 70/2/1 68/2/1 69/2/1
f 71/2/1 68/2/1 70/2/1
f 74/2/1 73/2/1 72/2/1
f 75/2/1 73/2/1 74/2/1
f 78/2/1 77/2/1 76/2/1
f 79/2/1 77/2/1 78/2/1
f 82/2/1 81/2/1 80/2/1
f 83/2/1 81/2/1 82/2/1
f 86/2/1 85/2/1 84/2/1
f 87/2/1 85/2/1 86/2/1
f 90/2/1 89/2/1 88/2/1
f 91/2/1 89/2/1 90/2/1
f 94/2/1 93/2/1 92/2/1
f 95/2/1 93/2/1 94/2/1
f 98/2/1 97/2/1 96/2/1
f 99/2/1 97/2/1 98/2/1
f 102/2/1 101/2/1 100/2/1
f 103/2/1 101/2/1 102/2/1
f 106/2/1 105/2/1 104/2/1
f 107/2/1 105/2/1 106/2/1
f 110/2/1 109/2/1 108/2/1
f 111/2/1 109/2/1 110/2/1
f 114/2/1 113/2/1 112/2/1
f 115/2/1 113/2/1 114/2/1
f 118/2/1 117/2/1 116/2/1
f 119/2/1 117/2/1 118/2/1
f 122/2/1 121/2/1 120/2/1
f 123/2/1 121/2/1 122/2/1
f 126/2/1 125/2/1 124/2/1
f 127/2/1 125/2/1 126/2/1
f 128/2/2 129/2/2 130/2/2
f 130/2/2 129/2/2 131/2/2
f 132/2/2 133/2/2 134/2/2
f 134/2/2 133/2/2 135/2/2
f 136/2/2 137/2/2 138/2/2
f 138/2/2 137/2/2 139/2/2
f 140/2/2 141/2/2 142/2/2
f 142/2/2 141/2/2 143/2/2
f 144/2/2 145/2/2 146/2/2
f 146/2/2 145/2/2 147/2/2
f 148/2/2 149/2/2 150/2/2
f 150/2/2 149/2/2 151/2/2
f 152/2/2 153/2/2 154/2/2
f 154/2/2 153/2/2 155/2/2
f 156/2/2 157/2/2 158/2/2
f 158/2/2 157/2/2 159/2/2
f 160/2/2 161/2/2 162/2/2
f 162/2/2 161/2/2 163/2/2
f 164/2/2 165/2/2 166/2/2
f 166/2/2 165/2/2 167/2/2
f 168/2/2 169/2/2 170/2/2
f 170/2/2 169/2/2 171/2/2
f 172/2/2 173/2/2 174/2/2
f 174/2/2 173/2/2 175/2/2
f 176/2/2 177/2/2 178/2/2
f 178/2/2 177/2/2 179/2/2
f 179/2/2 177/2/2 180/2/2
f 181/2/2 182/2/2 183/2/2
f 183/2/2 182/2/2 184/2/2
f 185/2/2 186/2/2 187/2/2
f 187/2/2 186/2/2 188/2/2
f 189/2/2 190/2/2 191/2/2
f 191/2/2 190/2/2 192/2/2
f 193/2/2 194/2/2 195/2/2
f 195/2/2 194/2/2 196/2/2
f 197/2/2 198/2/2 199/2/2
f 199/2/2 198/2/2 200/2/2
f 201/2/2 202/2/2 203/2/2
f 203/2/2 202/2/2 204/2/2
f 205/2/2 206/2/2 207/2/2
f 207/2/2 206/2/2 208/2/2
f 209/1/2 210/1/2 211/1/2
f 211/1/2 210/1/2 212/1/2
f 212/1/2 210/1/2 213/1/2
f 213/2/2 214/2/2 217/2/2
f 217/2/2 214/2/2 218/2/2
f 215/2/2 216/2/2 219/2/2
f 219/2/2 216/2/2 220/2/2
f 220/2/2 221/2/2 222/2/2
f 222/2/2 221/2/2 223/2/2
f 224/1/2 225/1/2 227/1/2
f 227/1/2 225/1/2 228/1/2
f 228/1/2 225/1/2 229/1/2
f 225/2/2 226/2/2 230/2/2
f 229/1/2 225/1/2 230/1/2
f 230/2/2 226/2/2 231/2/2
f 232/2/2 233/2/2 234/2/2
f 234/2/2 233/2/2 235/2/2
f 235/2/2 236/2/2 237/2/2
f 237/2/2 236/2/2 238/2/2
f 239/2/2 240/2/2 243/2/2
f 241/2/2 242/2/2 244/2/2
f 239/2/2 243/2/2 246/2/2
f 243/2/2 244/2/2 246/2/2
f 245/2/2 246/2/2 247/2/2
f 246/2/2 244/2/2 248/2/2
f 247/2/2 246/2/2 248/2/2
f 248/2/2 244/2/2 249/2/2
f 244/2/2 242/2/2 250/2/2
f 249/2/2 244/2/2 250/2/2
f 251/1/2 252/1/2 253/1/2
f 253/1/2 252/1/2 254/1/2
f 257/2/3 256/2/3 255/2/3
f 259/2/3 257/2/3 255/2/3
f 259/2/3 258/2/3 257/2/3
f 260/2/3 258/2/3 259/2/3
f 261/2/3 258/2/3 260/2/3
f 267/2/3 262/2/3 261/2/3
f 267/2/3 261/2/3 260/2/3
f 268/2/3 262/2/3 267/2/3
f 270/2/3 264/2/3 263/2/3
f 271/2/3 264/2/3 270/2/3
f 272/2/3 264/2/3 271/2/3
f 274/2/3 270/2/3 269/2/3
f 274/2/3 271/2/3 270/2/3
f 275/2/3 271/2/3 274/2/3
f 276/2/3 271/2/3 275/2/3
f 279/2/3 266/2/3 265/2/3
f 280/2/3 266/2/3 279/2/3
f 282/2/3 274/2/3 273/2/3
f 283/2/3 276/2/3 275/2/3
f 283/2/3 277/2/3 276/2/3
f 284/2/3 277/2/3 283/2/3
f 285/2/3 277/2/3 284/2/3
f 287/2/3 279/2/3 278/2/3
f 288/2/3 279/2/3 287/2/3
f 290/2/3 282/2/3 281/2/3
f 291/2/3 290/2/3 289/2/3
f 292/2/3 282/2/3 290/2/3
f 292/2/3 290/2/3 291/2/3
f 293/2/3 282/2/3 292/2/3
f 294/2/3 274/2/3 282/2/3
f 294/2/3 282/2/3 293/2/3
f 296/2/3 286/2/3 285/2/3
f 296/2/3 285/2/3 284/2/3
f 297/2/3 286/2/3 296/2/3
f 298/2/3 286/2/3 297/2/3
f 301/2/3 274/2/3 294/2/3
f 302/2/3 274/2/3 301/2/3
f 303/2/3 297/2/3 296/2/3
f 303/2/3 296/2/3 295/2/3
f 304/2/3 297/2/3 303/2/3
f 305/2/3 297/2/3 304/2/3
f 306/2/3 300/2/3 299/2/3
f 307/2/3 300/2/3 306/2/3
f 309/2/3 304/2/3 303/2/3
f 309/2/3 303/2/3 302/2/3
f 310/2/3 304/2/3 309/2/3
f 311/2/3 304/2/3 310/2/3
f 313/2/3 312/2/3 311/2/3
f 313/2/3 311/2/3 310/2/3
f 314/2/3 312/2/3 313/2/3
f 315/2/3 308/2/3 307/2/3
f 316/2/3 308/2/3 315/2/3
f 318/2/3 262/2/3 268/2/3
f 320/2/3 318/2/3 317/2/3
f 321/2/3 262/2/3 318/2/3
f 321/2/3 318/2/3 320/2/3
f 322/2/3 262/2/3 321/2/3
f 323/2/3 320/2/3 319/2/3
f 323/2/3 321/2/3 320/2/3
f 324/2/3 321/2/3 323/2/3
f 325/2/3 323/2/3 319/2/3
f 326/2/3 323/2/3 325/2/3
f 332/2/3 328/2/3 327/2/3
f 333/2/3 328/2/3 332/2/3
f 334/2/3 330/2/3 329/2/3
f 335/2/3 330/2/3 334/2/3
f 338/1/3 333/1/3 332/1/3
f 338/1/3 332/1/3 331/1/3
f 339/1/3 333/1/3 338/1/3
f 341/2/3 336/2/3 335/2/3
f 342/2/3 336/2/3 341/2/3
f 344/1/3 340/1/3 339/1/3
f 344/1/3 338/1/3 337/1/3
f 344/1/3 339/1/3 338/1/3
f 345/1/3 340/1/3 344/1/3
f 346/1/3 340/1/3 345/1/3
f 347/1/3 340/1/3 346/1/3
f 348/1/3 340/1/3 347/1/3
f 350/1/3 344/1/3 337/1/3
f 351/1/3 344/1/3 350/1/3
f 353/1/3 346/1/3 345/1/3
f 354/1/3 346/1/3 353/1/3
f 355/1/3 346/1/3 354/1/3
f 356/3/3 355/3/3 354/3/3
f 357/3/3 355/3/3 356/3/3
f 360/1/3 353/1/3 352/1/3
f 360/1/3 354/1/3 353/1/3
f 361/1/3 354/1/3 360/1/3
f 362/3/3 356/3/3 354/3/3
f 362/4/3 357/4/3 356/4/3
f 363/3/3 355/3/3 357/3/3
f 363/4/3 357/4/3 362/4/3
f 364/3/3 355/3/3 363/3/3
f 365/1/3 349/1/3 348/1/3
f 365/1/3 348/1/3 347/1/3
f 366/1/3 359/1/3 358/1/3
f 368/1/3 354/1/3 361/1/3
f 369/1/3 354/1/3 368/1/3
f 370/3/3 363/3/3 362/3/3
f 370/1/3 354/1/3 369/1/3
f 370/3/3 362/3/3 354/3/3
f 371/3/3 363/3/3 370/3/3
f 372/1/3 365/1/3 364/1/3
f 373/1/3 367/1/3 366/1/3
f 373/1/3 366/1/3 358/1/3
f 374/1/3 367/1/3 373/1/3
f 376/1/3 371/1/3 370/1/3
f 376/1/3 372/1/3 371/1/3
f 376/1/3 370/1/3 369/1/3
f 377/1/3 372/1/3 376/1/3
f 378/1/3 372/1/3 377/1/3
f 379/1/3 365/1/3 372/1/3
f 379/1/3 372/1/3 378/1/3
f 380/1/3 373/1/3 358/1/3
f 381/1/3 373/1/3 380/1/3
f 383/1/3 377/1/3 376/1/3
f 383/1/3 376/1/3 375/1/3
f 384/3/3 378/3/3 377/3/3
f 385/3/3 378/3/3 384/3/3
f 386/1/3 365/1/3 379/1/3
f 387/1/3 349/1/3 365/1/3
f 387/1/3 365/1/3 386/1/3
f 388/4/3 385/4/3 384/4/3
f 388/3/3 384/3/3 377/3/3
f 389/3/3 386/3/3 385/3/3
f 389/4/3 385/4/3 388/4/3
f 392/1/3 383/1/3 382/1/3
f 393/1/3 377/1/3 383/1/3
f 393/1/3 383/1/3 392/1/3
f 394/3/3 388/3/3 377/3/3
f 394/1/3 377/1/3 393/1/3
f 394/3/3 389/3/3 388/3/3
f 395/3/3 386/3/3 389/3/3
f 395/3/3 389/3/3 394/3/3
f 396/1/3 391/1/3 390/1/3
f 397/1/3 395/1/3 394/1/3
f 397/1/3 394/1/3 393/1/3
f 398/1/3 395/1/3 397/1/3
f 399/1/3 349/1/3 387/1/3
f 400/1/3 349/1/3 399/1/3
f 401/1/3 349/1/3 400/1/3
f 402/1/3 398/1/3 397/1/3
f 402/1/3 397/1/3 396/1/3
f 402/1/3 400/1/3 399/1/3
f 402/1/3 399/1/3 398/1/3
f 402/1/3 396/1/3 390/1/3
f 403/1/3 400/1/3 402/1/3
f 404/1/3 400/1/3 403/1/3
f 405/1/3 400/1/3 404/1/3
f 407/2/3 343/2/3 342/2/3
f 408/2/3 343/2/3 407/2/3
f 409/1/3 404/1/3 403/1/3
f 410/1/3 404/1/3 409/1/3
f 411/1/3 404/1/3 410/1/3
f 413/2/3 407/2/3 406/2/3
f 414/2/3 407/2/3 413/2/3
f 415/2/3 411/2/3 410/2/3
f 416/2/3 411/2/3 415/2/3
f 417/2/3 413/2/3 412/2/3
f 418/2/3 413/2/3 417/2/3
f 421/2/3 420/2/3 419/2/3
f 422/2/3 420/2/3 421/2/3
f 425/1/3 424/1/3 423/1/3
f 426/1/3 424/1/3 425/1/3
f 429/1/3 428/1/3 427/1/3
f 430/1/3 428/1/3 429/1/3
f 433/2/3 432/2/3 431/2/3
f 434/2/3 432/2/3 433/2/3
f 435/2/4 436/2/4 438/2/4
f 437/2/4 438/2/4 439/2/4
f 438/2/4 436/2/4 440/2/4
f 439/2/4 438/2/4 440/2/4
f 440/2/4 436/2/4 441/2/4
f 441/2/4 436/2/4 442/2/4
f 443/2/4 444/2/4 445/2/4
f 445/2/4 444/2/4 446/2/4
f 447/1/4 448/1/4 449/1/4
f 449/1/4 448/1/4 450/1/4
f 451/1/4 452/1/4 453/1/4
f 453/1/4 452/1/4 454/1/4
f 455/2/4 456/2/4 457/2/4
f 457/2/4 456/2/4 458/2/4
f 459/2/4 460/2/4 461/2/4
f 461/2/4 460/2/4 462/2/4
f 463/2/4 464/2/4 466/2/4
f 466/2/4 464/2/4 467/2/4
f 465/2/4 466/2/4 470/2/4
f 467/2/4 468/2/4 470/2/4
f 466/2/4 467/2/4 470/2/4
f 470/2/4 468/2/4 471/2/4
f 471/2/4 468/2/4 472/2/4
f 469/1/4 470/1/4 474/1/4
f 474/1/4 470/1/4 475/1/4
f 472/2/4 473/2/4 476/2/4
f 471/2/4 472/2/4 476/2/4
f 476/2/4 473/2/4 477/2/4
f 477/2/4 473/2/4 478/2/4
f 475/2/4 476/2/4 479/2/4
f 476/2/4 477/2/4 479/2/4
f 479/2/4 477/2/4 480/2/4
f 480/2/4 477/2/4 481/2/4
f 481/2/4 477/2/4 482/2/4
f 480/2/4 481/2/4 483/2/4
f 483/2/4 481/2/4 484/2/4
f 485/2/4 486/2/4 487/2/4
f 487/2/4 486/2/4 488/2/4
f 485/2/4 487/2/4 489/2/4
f 488/2/4 486/2/4 490/2/4
f 485/2/4 489/2/4 491/2/4
f 489/2/4 490/2/4 491/2/4
f 490/2/4 486/2/4 492/2/4
f 491/2/4 490/2/4 492/2/4
f 493/2/4 494/2/4 495/2/4
f 495/2/4 494/2/4 496/2/4
f 493/2/4 495/2/4 497/2/4
f 496/2/4 494/2/4 498/2/4
f 493/2/4 497/2/4 499/2/4
f 497/2/4 498/2/4 499/2/4
f 498/2/4 494/2/4 500/2/4
f 499/2/4 498/2/4 500/2/4
f 501/2/4 502/2/4 503/2/4
f 503/2/4 502/2/4 504/2/4
f 507/2/5 506/2/5 505/2/5
f 508/2/5 506/2/5 507/2/5
f 513/2/5 510/2/5 509/2/5
f 514/2/5 510/2/5 513/2/5
f 515/2/5 512/2/5 511/2/5
f 516/2/5 512/2/5 515/2/5
f 521/2/5 518/2/5 517/2/5
f 522/2/5 520/2/5 519/2/5
f 523/2/5 521/2/5 517/2/5
f 523/2/5 522/2/5 521/2/5
f 524/2/5 520/2/5 522/2/5
f 524/2/5 522/2/5 523/2/5
f 530/2/5 526/2/5 525/2/5
f 531/2/5 526/2/5 530/2/5
f 532/2/5 528/2/5 527/2/5
f 533/2/5 528/2/5 532/2/5
f 535/1/5 531/1/5 530/1/5
f 535/1/5 530/1/5 529/1/5
f 536/1/5 534/1/5 533/1/5
f 536/1/5 533/1/5 532/1/5
f 537/1/5 535/1/5 529/1/5
f 537/1/5 536/1/5 535/1/5
f 538/1/5 534/1/5 536/1/5
f 538/1/5 536/1/5 537/1/5
f 549/2/5 540/2/5 539/2/5
f 550/2/5 540/2/5 549/2/5
f 551/2/5 542/2/5 541/2/5
f 552/2/5 542/2/5 551/2/5
f 553/2/5 544/2/5 543/2/5
f 554/2/5 544/2/5 553/2/5
f 555/2/5 546/2/5 545/2/5
f 556/2/5 546/2/5 555/2/5
f 559/1/5 548/1/5 547/1/5
f 560/1/5 548/1/5 559/1/5
f 561/1/5 558/1/5 557/1/5
f 562/1/5 558/1/5 561/1/5
f 563/2/5 560/2/5 559/2/5
f 564/2/5 560/2/5 563/2/5
f 565/2/5 562/2/5 561/2/5
f 566/2/5 562/2/5 565/2/5
f 567/2/5 565/2/5 564/2/5
f 568/2/5 565/2/5 567/2/5
f 573/2/5 570/2/5 569/2/5
f 574/2/5 570/2/5 573/2/5
f 578/2/5 572/2/5 571/2/5
f 579/2/5 572/2/5 578/2/5
f 580/2/5 576/2/5 575/2/5
f 581/2/5 576/2/5 580/2/5
f 583/1/5 581/1/5 580/1/5
f 583/1/5 582/1/5 581/1/5
f 584/1/5 582/1/5 583/1/5
f 585/1/5 582/1/5 584/1/5
f 586/1/5 579/1/5 578/1/5
f 586/1/5 578/1/5 577/1/5
f 587/1/5 579/1/5 586/1/5
f 588/1/5 579/1/5 587/1/5
f 589/2/5 588/2/5 587/2/5
f 590/2/5 584/2/5 583/2/5
f 591/2/5 589/2/5 587/2/5
f 592/2/5 589/2/5 591/2/5
f 593/2/5 584/2/5 590/2/5
f 594/2/5 584/2/5 593/2/5
f 597/2/5 596/2/5 595/2/5
f 598/2/5 596/2/5 597/2/5
f 601/2/5 600/2/5 599/2/5
f 602/2/5 600/2/5 601/2/5
f 607/2/5 604/2/5 603/2/5
f 608/2/5 604/2/5 607/2/5
f 609/2/5 606/2/5 605/2/5
f 610/2/5 606/2/5 609/2/5
f 615/2/5 612/2/5 611/2/5
f 616/2/5 612/2/5 615/2/5
f 617/2/5 612/2/5 616/2/5
f 618/2/5 614/2/5 613/2/5
f 619/2/5 614/2/5 618/2/5
f 620/2/5 614/2/5 619/2/5
f 625/2/5 622/2/5 621/2/5
f 626/2/5 622/2/5 625/2/5
f 627/2/5 622/2/5 626/2/5
f 628/2/5 624/2/5 623/2/5
f 629/2/5 624/2/5 628/2/5
f 630/2/5 624/2/5 629/2/5
f 635/2/5 632/2/5 631/2/5
f 636/2/5 632/2/5 635/2/5
f 637/2/5 634/2/5 633/2/5
f 638/2/5 634/2/5 637/2/5
f 641/2/5 640/2/5 639/2/5
f 642/2/5 640/2/5 641/2/5
f 643/2/6 644/2/6 645/2/6
f 645/2/6 644/2/6 646/2/6
f 647/2/6 648/2/6 651/2/6
f 651/2/6 648/2/6 652/2/6
f 649/2/6 650/2/6 653/2/6
f 653/2/6 650/2/6 654/2/6
f 655/2/6 656/2/6 663/2/6
f 663/2/6 656/2/6 664/2/6
f 657/2/6 658/2/6 665/2/6
f 665/2/6 658/2/6 666/2/6
f 659/2/6 660/2/6 667/2/6
f 667/2/6 660/2/6 668/2/6
f 661/2/6 662/2/6 669/2/6
f 669/2/6 662/2/6 670/2/6
f 671/2/6 672/2/6 673/2/6
f 673/2/6 672/2/6 674/2/6
f 677/1/6 678/1/6 679/1/6
f 679/1/6 678/1/6 680/1/6
f 675/1/6 676/1/6 681/1/6
f 681/1/6 676/1/6 682/1/6
f 683/2/6 684/2/6 687/2/6
f 687/2/6 684/2/6 688/2/6
f 685/2/6 686/2/6 689/2/6
f 689/2/6 686/2/6 690/2/6
f 691/2/6 692/2/6 693/2/6
f 693/2/6 692/2/6 694/2/6
f 695/2/6 696/2/6 699/2/6
f 699/2/6 696/2/6 700/2/6
f 697/2/6 698/2/6 701/2/6
f 701/2/6 698/2/6 702/2/6
f 703/2/6 704/2/6 707/2/6
f 707/2/6 704/2/6 708/2/6
f 705/2/6 706/2/6 709/2/6
f 709/2/6 706/2/6 710/2/6
f 711/2/6 712/2/6 713/2/6
f 713/2/6 712/2/6 714/2/6
f 715/2/6 716/2/6 720/2/6
f 720/2/6 716/2/6 721/2/6
f 717/2/6 718/2/6 722/2/6
f 722/2/6 718/2/6 723/2/6
f 719/2/6 720/2/6 725/2/6
f 725/2/6 720/2/6 726/2/6
f 723/2/6 724/2/6 729/2/6
f 729/2/6 724/2/6 730/2/6
f 727/2/6 728/2/6 731/2/6
f 731/2/6 728/2/6 732/2/6
f 733/2/6 734/2/6 736/2/6
f 736/2/6 734/2/6 737/2/6
f 735/2/6 736/2/6 739/2/6
f 739/2/6 736/2/6 740/2/6
f 737/2/6 738/2/6 741/2/6
f 741/2/6 738/2/6 742/2/6
f 743/2/6 744/2/6 745/2/6
f 745/2/6 744/2/6 746/2/6
f 743/2/6 745/2/6 747/2/6
f 746/2/6 744/2/6 748/2/6
f 743/2/6 747/2/6 749/2/6
f 747/2/6 748/2/6 749/2/6
f 748/2/6 744/2/6 750/2/6
f 749/2/6 748/2/6 750/2/6
f 751/2/6 752/2/6 753/2/6
f 753/2/6 752/2/6 754/2/6
f 751/2/6 753/2/6 755/2/6
f 754/2/6 752/2/6 756/2/6
f 751/2/6 755/2/6 757/2/6
f 755/2/6 756/2/6 757/2/6
f 756/2/6 752/2/6 758/2/6
f 757/2/6 756/2/6 758/2/6
f 759/2/6 760/2/6 761/2/6
f 761/2/6 760/2/6 762/2/6
