# MagicaVoxel @ Ephtracy

# group
g SalaSemSaida

# material
mtllib SalaSemSaida.mtl
usemtl palette

# normals
vn -1 0 0
vn 1 0 0
vn 0 0 1
vn 0 0 -1
vn 0 -1 0
vn 0 1 0

# texcoords
vt 0.119141 0.5
vt 0.146484 0.5
vt 0.404297 0.5
vt 0.982422 0.5
vt 0.994141 0.5

# verts
v -20 0 20
v -20 0 -20
v -20 40 20
v -20 40 -20
v -8 7 -18
v -8 7 -19
v -8 8 -18
v -8 8 -19
v -8 9 -18
v -8 9 -19
v -8 10 -18
v -8 10 -19
v -7 6 -18
v -7 6 -19
v -7 7 -17
v -7 7 -18
v -7 7 -19
v -7 8 -17
v -7 8 -18
v -7 8 -19
v -7 9 -18
v -7 9 -19
v -7 10 -18
v -7 10 -19
v -7 11 -18
v -7 11 -19
v -7 12 -18
v -7 12 -19
v 5 7 -18
v 5 7 -19
v 5 8 -18
v 5 8 -19
v 5 9 -18
v 5 9 -19
v 5 11 -18
v 5 11 -19
v 6 6 -18
v 6 6 -19
v 6 7 -17
v 6 7 -18
v 6 7 -19
v 6 8 -17
v 6 8 -18
v 6 8 -19
v 6 9 -18
v 6 9 -19
v 6 11 -18
v 6 11 -19
v 6 12 -18
v 6 12 -19
v 19 1 20
v 19 1 -19
v 19 40 20
v 19 40 -19
v -19 1 20
v -19 1 -19
v -19 40 20
v -19 40 -19
v -6 6 -18
v -6 6 -19
v -6 7 -17
v -6 7 -18
v -6 7 -19
v -6 8 -17
v -6 8 -18
v -6 8 -19
v -6 9 -18
v -6 9 -19
v -6 11 -18
v -6 11 -19
v -6 12 -18
v -6 12 -19
v -5 7 -18
v -5 7 -19
v -5 8 -18
v -5 8 -19
v -5 9 -18
v -5 9 -19
v -5 11 -18
v -5 11 -19
v 7 6 -18
v 7 6 -19
v 7 7 -17
v 7 7 -18
v 7 7 -19
v 7 8 -17
v 7 8 -18
v 7 8 -19
v 7 9 -18
v 7 9 -19
v 7 10 -18
v 7 10 -19
v 7 11 -18
v 7 11 -19
v 7 12 -18
v 7 12 -19
v 8 7 -18
v 8 7 -19
v 8 8 -18
v 8 8 -19
v 8 9 -18
v 8 9 -19
v 8 10 -18
v 8 10 -19
v 20 0 20
v 20 0 -20
v 20 40 20
v 20 40 -20
v -20 0 20
v -20 40 20
v -19 1 20
v -19 40 20
v 19 1 20
v 19 40 20
v 20 0 20
v 20 40 20
v -7 7 -17
v -7 8 -17
v -6 7 -17
v -6 8 -17
v 6 7 -17
v 6 8 -17
v 7 7 -17
v 7 8 -17
v -8 7 -18
v -8 8 -18
v -8 9 -18
v -8 10 -18
v -7 6 -18
v -7 7 -18
v -7 8 -18
v -7 9 -18
v -7 10 -18
v -7 11 -18
v -7 12 -18
v -6 6 -18
v -6 7 -18
v -6 8 -18
v -6 9 -18
v -6 11 -18
v -6 12 -18
v -5 7 -18
v -5 8 -18
v -5 9 -18
v -5 11 -18
v 5 7 -18
v 5 8 -18
v 5 9 -18
v 5 11 -18
v 6 6 -18
v 6 7 -18
v 6 8 -18
v 6 9 -18
v 6 11 -18
v 6 12 -18
v 7 6 -18
v 7 7 -18
v 7 8 -18
v 7 9 -18
v 7 10 -18
v 7 11 -18
v 7 12 -18
v 8 7 -18
v 8 8 -18
v 8 9 -18
v 8 10 -18
v -19 1 -19
v -19 40 -19
v -8 7 -19
v -8 8 -19
v -8 9 -19
v -8 10 -19
v -7 6 -19
v -7 7 -19
v -7 8 -19
v -7 9 -19
v -7 10 -19
v -7 11 -19
v -7 12 -19
v -6 6 -19
v -6 7 -19
v -6 8 -19
v -6 9 -19
v -6 11 -19
v -6 12 -19
v -5 7 -19
v -5 8 -19
v -5 9 -19
v -5 11 -19
v 5 7 -19
v 5 8 -19
v 5 9 -19
v 5 11 -19
v 6 6 -19
v 6 7 -19
v 6 8 -19
v 6 9 -19
v 6 11 -19
v 6 12 -19
v 7 6 -19
v 7 7 -19
v 7 8 -19
v 7 9 -19
v 7 10 -19
v 7 11 -19
v 7 12 -19
v 8 7 -19
v 8 8 -19
v 8 9 -19
v 8 10 -19
v 19 1 -19
v 19 40 -19
v -20 0 -20
v -20 40 -20
v 20 0 -20
v 20 40 -20
v -20 0 20
v 20 0 20
v -20 0 -20
v 20 0 -20
v -7 6 -18
v -6 6 -18
v 6 6 -18
v 7 6 -18
v -7 6 -19
v -6 6 -19
v 6 6 -19
v 7 6 -19
v -7 7 -17
v -6 7 -17
v 6 7 -17
v 7 7 -17
v -8 7 -18
v -7 7 -18
v -6 7 -18
v -5 7 -18
v 5 7 -18
v 6 7 -18
v 7 7 -18
v 8 7 -18
v -8 7 -19
v -7 7 -19
v -6 7 -19
v -5 7 -19
v 5 7 -19
v 6 7 -19
v 7 7 -19
v 8 7 -19
v -8 9 -18
v -7 9 -18
v -6 9 -18
v -5 9 -18
v 5 9 -18
v 6 9 -18
v 7 9 -18
v 8 9 -18
v -8 9 -19
v -7 9 -19
v -6 9 -19
v -5 9 -19
v 5 9 -19
v 6 9 -19
v 7 9 -19
v 8 9 -19
v -19 1 20
v 19 1 20
v -19 1 -19
v 19 1 -19
v -7 8 -17
v -6 8 -17
v 6 8 -17
v 7 8 -17
v -8 8 -18
v -7 8 -18
v -6 8 -18
v -5 8 -18
v 5 8 -18
v 6 8 -18
v 7 8 -18
v 8 8 -18
v -8 8 -19
v -7 8 -19
v -6 8 -19
v -5 8 -19
v 5 8 -19
v 6 8 -19
v 7 8 -19
v 8 8 -19
v -8 10 -18
v -7 10 -18
v 7 10 -18
v 8 10 -18
v -8 10 -19
v -7 10 -19
v 7 10 -19
v 8 10 -19
v -6 11 -18
v -5 11 -18
v 5 11 -18
v 6 11 -18
v -6 11 -19
v -5 11 -19
v 5 11 -19
v 6 11 -19
v -7 12 -18
v -6 12 -18
v 6 12 -18
v 7 12 -18
v -7 12 -19
v -6 12 -19
v 6 12 -19
v 7 12 -19
v -20 40 20
v -19 40 20
v 19 40 20
v 20 40 20
v -19 40 -19
v 19 40 -19
v -20 40 -20
v 20 40 -20

# faces
f 3/4/1 2/4/1 1/4/1
f 4/4/1 2/4/1 3/4/1
f 7/5/1 6/5/1 5/5/1
f 8/5/1 6/5/1 7/5/1
f 11/2/1 10/2/1 9/2/1
f 12/2/1 10/2/1 11/2/1
f 16/1/1 14/1/1 13/1/1
f 17/1/1 14/1/1 16/1/1
f 18/5/1 16/5/1 15/5/1
f 19/5/1 16/5/1 18/5/1
f 21/1/1 20/1/1 19/1/1
f 22/1/1 20/1/1 21/1/1
f 25/3/1 24/3/1 23/3/1
f 26/3/1 24/3/1 25/3/1
f 27/2/1 26/2/1 25/2/1
f 28/2/1 26/2/1 27/2/1
f 31/5/1 30/5/1 29/5/1
f 32/5/1 30/5/1 31/5/1
f 35/2/1 34/2/1 33/2/1
f 36/2/1 34/2/1 35/2/1
f 40/1/1 38/1/1 37/1/1
f 41/1/1 38/1/1 40/1/1
f 42/5/1 40/5/1 39/5/1
f 43/5/1 40/5/1 42/5/1
f 45/1/1 44/1/1 43/1/1
f 46/1/1 44/1/1 45/1/1
f 49/2/1 48/2/1 47/2/1
f 50/2/1 48/2/1 49/2/1
f 53/4/1 52/4/1 51/4/1
f 54/4/1 52/4/1 53/4/1
f 55/4/2 56/4/2 57/4/2
f 57/4/2 56/4/2 58/4/2
f 59/1/2 60/1/2 62/1/2
f 62/1/2 60/1/2 63/1/2
f 61/5/2 62/5/2 64/5/2
f 64/5/2 62/5/2 65/5/2
f 65/1/2 66/1/2 67/1/2
f 67/1/2 66/1/2 68/1/2
f 69/2/2 70/2/2 71/2/2
f 71/2/2 70/2/2 72/2/2
f 73/5/2 74/5/2 75/5/2
f 75/5/2 74/5/2 76/5/2
f 77/2/2 78/2/2 79/2/2
f 79/2/2 78/2/2 80/2/2
f 81/1/2 82/1/2 84/1/2
f 84/1/2 82/1/2 85/1/2
f 83/5/2 84/5/2 86/5/2
f 86/5/2 84/5/2 87/5/2
f 87/1/2 88/1/2 89/1/2
f 89/1/2 88/1/2 90/1/2
f 91/3/2 92/3/2 93/3/2
f 93/3/2 92/3/2 94/3/2
f 93/2/2 94/2/2 95/2/2
f 95/2/2 94/2/2 96/2/2
f 97/5/2 98/5/2 99/5/2
f 99/5/2 98/5/2 100/5/2
f 101/2/2 102/2/2 103/2/2
f 103/2/2 102/2/2 104/2/2
f 105/4/2 106/4/2 107/4/2
f 107/4/2 106/4/2 108/4/2
f 111/4/3 110/4/3 109/4/3
f 112/4/3 110/4/3 111/4/3
f 113/4/3 111/4/3 109/4/3
f 115/4/3 113/4/3 109/4/3
f 115/4/3 114/4/3 113/4/3
f 116/4/3 114/4/3 115/4/3
f 119/5/3 118/5/3 117/5/3
f 120/5/3 118/5/3 119/5/3
f 123/5/3 122/5/3 121/5/3
f 124/5/3 122/5/3 123/5/3
f 130/5/3 126/5/3 125/5/3
f 131/5/3 126/5/3 130/5/3
f 132/2/3 128/2/3 127/2/3
f 133/2/3 128/2/3 132/2/3
f 136/1/3 130/1/3 129/1/3
f 137/1/3 130/1/3 136/1/3
f 138/1/3 132/1/3 131/1/3
f 139/3/3 134/3/3 133/3/3
f 139/3/3 133/3/3 132/3/3
f 139/1/3 132/1/3 138/1/3
f 140/2/3 135/2/3 134/2/3
f 140/3/3 134/3/3 139/3/3
f 141/2/3 135/2/3 140/2/3
f 142/5/3 138/5/3 137/5/3
f 143/5/3 138/5/3 142/5/3
f 144/2/3 140/2/3 139/2/3
f 145/2/3 140/2/3 144/2/3
f 151/5/3 147/5/3 146/5/3
f 152/5/3 147/5/3 151/5/3
f 153/2/3 149/2/3 148/2/3
f 154/2/3 149/2/3 153/2/3
f 156/1/3 151/1/3 150/1/3
f 157/1/3 151/1/3 156/1/3
f 158/1/3 153/1/3 152/1/3
f 159/3/3 154/3/3 153/3/3
f 159/1/3 153/1/3 158/1/3
f 160/3/3 154/3/3 159/3/3
f 161/2/3 155/2/3 154/2/3
f 161/3/3 154/3/3 160/3/3
f 162/2/3 155/2/3 161/2/3
f 163/5/3 158/5/3 157/5/3
f 164/5/3 158/5/3 163/5/3
f 165/2/3 160/2/3 159/2/3
f 166/2/3 160/2/3 165/2/3
f 169/4/3 168/4/3 167/4/3
f 170/4/3 168/4/3 169/4/3
f 171/4/3 168/4/3 170/4/3
f 172/4/3 168/4/3 171/4/3
f 173/4/3 169/4/3 167/4/3
f 174/4/3 169/4/3 173/4/3
f 175/4/3 171/4/3 170/4/3
f 176/4/3 171/4/3 175/4/3
f 177/4/3 168/4/3 172/4/3
f 178/4/3 168/4/3 177/4/3
f 179/4/3 168/4/3 178/4/3
f 180/4/3 173/4/3 167/4/3
f 185/4/3 168/4/3 179/4/3
f 186/4/3 181/4/3 180/4/3
f 187/4/3 183/4/3 182/4/3
f 188/4/3 183/4/3 187/4/3
f 189/4/3 185/4/3 184/4/3
f 190/4/3 186/4/3 180/4/3
f 190/4/3 189/4/3 188/4/3
f 190/4/3 188/4/3 187/4/3
f 190/4/3 187/4/3 186/4/3
f 191/4/3 189/4/3 190/4/3
f 192/4/3 189/4/3 191/4/3
f 193/4/3 185/4/3 189/4/3
f 193/4/3 189/4/3 192/4/3
f 194/4/3 180/4/3 167/4/3
f 194/4/3 190/4/3 180/4/3
f 195/4/3 190/4/3 194/4/3
f 196/4/3 192/4/3 191/4/3
f 197/4/3 192/4/3 196/4/3
f 198/4/3 185/4/3 193/4/3
f 199/4/3 168/4/3 185/4/3
f 199/4/3 185/4/3 198/4/3
f 200/4/3 194/4/3 167/4/3
f 206/4/3 168/4/3 199/4/3
f 207/4/3 201/4/3 200/4/3
f 208/4/3 203/4/3 202/4/3
f 209/4/3 203/4/3 208/4/3
f 210/4/3 205/4/3 204/4/3
f 210/4/3 206/4/3 205/4/3
f 211/4/3 209/4/3 208/4/3
f 211/4/3 210/4/3 209/4/3
f 211/4/3 200/4/3 167/4/3
f 211/4/3 208/4/3 207/4/3
f 211/4/3 207/4/3 200/4/3
f 212/4/3 206/4/3 210/4/3
f 212/4/3 210/4/3 211/4/3
f 212/4/3 168/4/3 206/4/3
f 213/4/4 214/4/4 215/4/4
f 215/4/4 214/4/4 216/4/4
f 219/4/5 218/4/5 217/4/5
f 220/4/5 218/4/5 219/4/5
f 225/1/5 222/1/5 221/1/5
f 226/1/5 222/1/5 225/1/5
f 227/1/5 224/1/5 223/1/5
f 228/1/5 224/1/5 227/1/5
f 234/5/5 230/5/5 229/5/5
f 235/5/5 230/5/5 234/5/5
f 238/5/5 232/5/5 231/5/5
f 239/5/5 232/5/5 238/5/5
f 241/5/5 234/5/5 233/5/5
f 242/5/5 234/5/5 241/5/5
f 243/5/5 236/5/5 235/5/5
f 244/5/5 236/5/5 243/5/5
f 245/5/5 238/5/5 237/5/5
f 246/5/5 238/5/5 245/5/5
f 247/5/5 240/5/5 239/5/5
f 248/5/5 240/5/5 247/5/5
f 257/2/5 250/2/5 249/2/5
f 258/2/5 250/2/5 257/2/5
f 259/2/5 252/2/5 251/2/5
f 260/2/5 252/2/5 259/2/5
f 261/2/5 254/2/5 253/2/5
f 262/2/5 254/2/5 261/2/5
f 263/2/5 256/2/5 255/2/5
f 264/2/5 256/2/5 263/2/5
f 265/4/6 266/4/6 267/4/6
f 267/4/6 266/4/6 268/4/6
f 269/5/6 270/5/6 274/5/6
f 274/5/6 270/5/6 275/5/6
f 271/5/6 272/5/6 278/5/6
f 278/5/6 272/5/6 279/5/6
f 273/5/6 274/5/6 281/5/6
f 281/5/6 274/5/6 282/5/6
f 275/5/6 276/5/6 283/5/6
f 283/5/6 276/5/6 284/5/6
f 277/5/6 278/5/6 285/5/6
f 285/5/6 278/5/6 286/5/6
f 279/5/6 280/5/6 287/5/6
f 287/5/6 280/5/6 288/5/6
f 289/2/6 290/2/6 293/2/6
f 293/2/6 290/2/6 294/2/6
f 291/2/6 292/2/6 295/2/6
f 295/2/6 292/2/6 296/2/6
f 297/2/6 298/2/6 301/2/6
f 301/2/6 298/2/6 302/2/6
f 299/2/6 300/2/6 303/2/6
f 303/2/6 300/2/6 304/2/6
f 305/2/6 306/2/6 309/2/6
f 309/2/6 306/2/6 310/2/6
f 307/2/6 308/2/6 311/2/6
f 311/2/6 308/2/6 312/2/6
f 313/4/6 314/4/6 317/4/6
f 315/4/6 316/4/6 318/4/6
f 313/4/6 317/4/6 319/4/6
f 317/4/6 318/4/6 319/4/6
f 318/4/6 316/4/6 320/4/6
f 319/4/6 318/4/6 320/4/6
