# MagicaVoxel @ Ephtracy

# group
g SalaFinal

# material
mtllib SalaFinal.mtl
usemtl palette

# normals
vn -1 0 0
vn 1 0 0
vn 0 0 1
vn 0 0 -1
vn 0 -1 0
vn 0 1 0

# texcoords
vt 0.119141 0.5
vt 0.146484 0.5
vt 0.373047 0.5
vt 0.986328 0.5
vt 0.994141 0.5

# verts
v -20 0 20
v -20 0 -20
v -20 40 20
v -20 40 -20
v -18 11 14
v -18 11 13
v -18 11 -13
v -18 11 -14
v -18 12 14
v -18 12 13
v -18 12 -13
v -18 12 -14
v -14 1 -12
v -14 1 -15
v -14 2 -12
v -14 2 -15
v -8 1 -18
v -8 1 -19
v -8 2 -18
v -8 2 -19
v 5 1 -18
v 5 1 -19
v 5 2 -18
v 5 2 -19
v 10 1 -12
v 10 1 -15
v 10 2 -12
v 10 2 -15
v 17 11 14
v 17 11 13
v 17 11 -13
v 17 11 -14
v 17 12 14
v 17 12 13
v 17 12 -13
v 17 12 -14
v 18 10 14
v 18 10 13
v 18 10 -13
v 18 10 -14
v 18 11 15
v 18 11 14
v 18 11 13
v 18 11 12
v 18 11 -12
v 18 11 -13
v 18 11 -14
v 18 11 -15
v 18 12 15
v 18 12 14
v 18 12 13
v 18 12 12
v 18 12 -12
v 18 12 -13
v 18 12 -14
v 18 12 -15
v 18 13 15
v 18 13 14
v 18 13 13
v 18 13 12
v 18 13 -12
v 18 13 -13
v 18 13 -14
v 18 13 -15
v 18 14 13
v 18 14 12
v 18 14 -14
v 18 14 -15
v 18 15 15
v 18 15 14
v 18 15 13
v 18 15 -12
v 18 15 -13
v 18 15 -14
v 18 16 14
v 18 16 13
v 18 16 -13
v 18 16 -14
v 19 1 20
v 19 1 -19
v 19 10 14
v 19 10 13
v 19 10 -13
v 19 10 -14
v 19 11 15
v 19 11 14
v 19 11 13
v 19 11 12
v 19 11 -12
v 19 11 -13
v 19 11 -14
v 19 11 -15
v 19 12 15
v 19 12 14
v 19 12 13
v 19 12 12
v 19 12 -12
v 19 12 -13
v 19 12 -14
v 19 12 -15
v 19 13 15
v 19 13 14
v 19 13 13
v 19 13 12
v 19 13 -12
v 19 13 -13
v 19 13 -14
v 19 13 -15
v 19 14 13
v 19 14 12
v 19 14 -14
v 19 14 -15
v 19 15 15
v 19 15 14
v 19 15 13
v 19 15 -12
v 19 15 -13
v 19 15 -14
v 19 16 14
v 19 16 13
v 19 16 -13
v 19 16 -14
v 19 40 20
v 19 40 -19
v -19 1 20
v -19 1 -19
v -19 10 14
v -19 10 13
v -19 10 -13
v -19 10 -14
v -19 11 15
v -19 11 14
v -19 11 13
v -19 11 12
v -19 11 -12
v -19 11 -13
v -19 11 -14
v -19 11 -15
v -19 12 15
v -19 12 14
v -19 12 13
v -19 12 12
v -19 12 -12
v -19 12 -13
v -19 12 -14
v -19 12 -15
v -19 13 15
v -19 13 14
v -19 13 13
v -19 13 12
v -19 13 -12
v -19 13 -13
v -19 13 -14
v -19 13 -15
v -19 14 15
v -19 14 14
v -19 14 -12
v -19 14 -13
v -19 15 14
v -19 15 13
v -19 15 12
v -19 15 -13
v -19 15 -14
v -19 15 -15
v -19 16 14
v -19 16 13
v -19 16 -13
v -19 16 -14
v -19 40 20
v -19 40 -19
v -18 10 14
v -18 10 13
v -18 10 -13
v -18 10 -14
v -18 11 15
v -18 11 14
v -18 11 13
v -18 11 12
v -18 11 -12
v -18 11 -13
v -18 11 -14
v -18 11 -15
v -18 12 15
v -18 12 14
v -18 12 13
v -18 12 12
v -18 12 -12
v -18 12 -13
v -18 12 -14
v -18 12 -15
v -18 13 15
v -18 13 14
v -18 13 13
v -18 13 12
v -18 13 -12
v -18 13 -13
v -18 13 -14
v -18 13 -15
v -18 14 15
v -18 14 14
v -18 14 -12
v -18 14 -13
v -18 15 14
v -18 15 13
v -18 15 12
v -18 15 -13
v -18 15 -14
v -18 15 -15
v -18 16 14
v -18 16 13
v -18 16 -13
v -18 16 -14
v -17 11 14
v -17 11 13
v -17 11 -13
v -17 11 -14
v -17 12 14
v -17 12 13
v -17 12 -13
v -17 12 -14
v -10 1 -12
v -10 1 -15
v -10 2 -12
v -10 2 -15
v -5 1 -18
v -5 1 -19
v -5 2 -18
v -5 2 -19
v 8 1 -18
v 8 1 -19
v 8 2 -18
v 8 2 -19
v 14 1 -12
v 14 1 -15
v 14 2 -12
v 14 2 -15
v 18 11 14
v 18 11 13
v 18 11 -13
v 18 11 -14
v 18 12 14
v 18 12 13
v 18 12 -13
v 18 12 -14
v 20 0 20
v 20 0 -20
v 20 40 20
v 20 40 -20
v -20 0 20
v -20 40 20
v -19 1 20
v -19 40 20
v 19 1 20
v 19 40 20
v 20 0 20
v 20 40 20
v -19 11 15
v -19 12 15
v -19 13 15
v -19 14 15
v -18 11 15
v -18 12 15
v -18 13 15
v -18 14 15
v 18 11 15
v 18 12 15
v 18 13 15
v 18 15 15
v 19 11 15
v 19 12 15
v 19 13 15
v 19 15 15
v -19 10 14
v -19 11 14
v -19 12 14
v -19 13 14
v -19 14 14
v -19 15 14
v -19 16 14
v -18 10 14
v -18 11 14
v -18 12 14
v -18 13 14
v -18 14 14
v -18 15 14
v -18 16 14
v -17 11 14
v -17 12 14
v 17 11 14
v 17 12 14
v 18 10 14
v 18 11 14
v 18 12 14
v 18 13 14
v 18 15 14
v 18 16 14
v 19 10 14
v 19 11 14
v 19 12 14
v 19 13 14
v 19 15 14
v 19 16 14
v -19 11 13
v -19 12 13
v -18 11 13
v -18 12 13
v 18 11 13
v 18 12 13
v 19 11 13
v 19 12 13
v -19 11 -12
v -19 12 -12
v -19 13 -12
v -19 14 -12
v -18 11 -12
v -18 12 -12
v -18 13 -12
v -18 14 -12
v -14 1 -12
v -14 2 -12
v -10 1 -12
v -10 2 -12
v 10 1 -12
v 10 2 -12
v 14 1 -12
v 14 2 -12
v 18 11 -12
v 18 12 -12
v 18 13 -12
v 18 15 -12
v 19 11 -12
v 19 12 -12
v 19 13 -12
v 19 15 -12
v -19 10 -13
v -19 11 -13
v -19 12 -13
v -19 13 -13
v -19 14 -13
v -19 15 -13
v -19 16 -13
v -18 10 -13
v -18 11 -13
v -18 12 -13
v -18 13 -13
v -18 14 -13
v -18 15 -13
v -18 16 -13
v -17 11 -13
v -17 12 -13
v 17 11 -13
v 17 12 -13
v 18 10 -13
v 18 11 -13
v 18 12 -13
v 18 13 -13
v 18 15 -13
v 18 16 -13
v 19 10 -13
v 19 11 -13
v 19 12 -13
v 19 13 -13
v 19 15 -13
v 19 16 -13
v -19 11 -14
v -19 12 -14
v -18 11 -14
v -18 12 -14
v 18 11 -14
v 18 12 -14
v 19 11 -14
v 19 12 -14
v -8 1 -18
v -8 2 -18
v -5 1 -18
v -5 2 -18
v 5 1 -18
v 5 2 -18
v 8 1 -18
v 8 2 -18
v -19 1 -19
v -19 40 -19
v -8 1 -19
v -8 2 -19
v -5 1 -19
v -5 2 -19
v 5 1 -19
v 5 2 -19
v 8 1 -19
v 8 2 -19
v 19 1 -19
v 19 40 -19
v -19 11 14
v -19 12 14
v -18 11 14
v -18 12 14
v 18 11 14
v 18 12 14
v 19 11 14
v 19 12 14
v -19 10 13
v -19 11 13
v -19 12 13
v -19 13 13
v -19 15 13
v -19 16 13
v -18 10 13
v -18 11 13
v -18 12 13
v -18 13 13
v -18 15 13
v -18 16 13
v -17 11 13
v -17 12 13
v 17 11 13
v 17 12 13
v 18 10 13
v 18 11 13
v 18 12 13
v 18 13 13
v 18 14 13
v 18 15 13
v 18 16 13
v 19 10 13
v 19 11 13
v 19 12 13
v 19 13 13
v 19 14 13
v 19 15 13
v 19 16 13
v -19 11 12
v -19 12 12
v -19 13 12
v -19 15 12
v -18 11 12
v -18 12 12
v -18 13 12
v -18 15 12
v 18 11 12
v 18 12 12
v 18 13 12
v 18 14 12
v 19 11 12
v 19 12 12
v 19 13 12
v 19 14 12
v -19 11 -13
v -19 12 -13
v -18 11 -13
v -18 12 -13
v 18 11 -13
v 18 12 -13
v 19 11 -13
v 19 12 -13
v -19 10 -14
v -19 11 -14
v -19 12 -14
v -19 13 -14
v -19 15 -14
v -19 16 -14
v -18 10 -14
v -18 11 -14
v -18 12 -14
v -18 13 -14
v -18 15 -14
v -18 16 -14
v -17 11 -14
v -17 12 -14
v 17 11 -14
v 17 12 -14
v 18 10 -14
v 18 11 -14
v 18 12 -14
v 18 13 -14
v 18 14 -14
v 18 15 -14
v 18 16 -14
v 19 10 -14
v 19 11 -14
v 19 12 -14
v 19 13 -14
v 19 14 -14
v 19 15 -14
v 19 16 -14
v -19 11 -15
v -19 12 -15
v -19 13 -15
v -19 15 -15
v -18 11 -15
v -18 12 -15
v -18 13 -15
v -18 15 -15
v -14 1 -15
v -14 2 -15
v -10 1 -15
v -10 2 -15
v 10 1 -15
v 10 2 -15
v 14 1 -15
v 14 2 -15
v 18 11 -15
v 18 12 -15
v 18 13 -15
v 18 14 -15
v 19 11 -15
v 19 12 -15
v 19 13 -15
v 19 14 -15
v -20 0 -20
v -20 40 -20
v 20 0 -20
v 20 40 -20
v -20 0 20
v 20 0 20
v -20 0 -20
v 20 0 -20
v -19 10 14
v -18 10 14
v 18 10 14
v 19 10 14
v -19 10 13
v -18 10 13
v 18 10 13
v 19 10 13
v -19 10 -13
v -18 10 -13
v 18 10 -13
v 19 10 -13
v -19 10 -14
v -18 10 -14
v 18 10 -14
v 19 10 -14
v -19 11 15
v -18 11 15
v 18 11 15
v 19 11 15
v -19 11 14
v -18 11 14
v -17 11 14
v 17 11 14
v 18 11 14
v 19 11 14
v -19 11 13
v -18 11 13
v -17 11 13
v 17 11 13
v 18 11 13
v 19 11 13
v -19 11 12
v -18 11 12
v 18 11 12
v 19 11 12
v -19 11 -12
v -18 11 -12
v 18 11 -12
v 19 11 -12
v -19 11 -13
v -18 11 -13
v -17 11 -13
v 17 11 -13
v 18 11 -13
v 19 11 -13
v -19 11 -14
v -18 11 -14
v -17 11 -14
v 17 11 -14
v 18 11 -14
v 19 11 -14
v -19 11 -15
v -18 11 -15
v 18 11 -15
v 19 11 -15
v -19 12 14
v -18 12 14
v 18 12 14
v 19 12 14
v -19 12 13
v -18 12 13
v 18 12 13
v 19 12 13
v -19 12 -13
v -18 12 -13
v 18 12 -13
v 19 12 -13
v -19 12 -14
v -18 12 -14
v 18 12 -14
v 19 12 -14
v -19 13 15
v -18 13 15
v 18 13 15
v 19 13 15
v -19 13 14
v -18 13 14
v 18 13 14
v 19 13 14
v -19 13 13
v -18 13 13
v 18 13 13
v 19 13 13
v -19 13 12
v -18 13 12
v 18 13 12
v 19 13 12
v -19 13 -12
v -18 13 -12
v 18 13 -12
v 19 13 -12
v -19 13 -13
v -18 13 -13
v 18 13 -13
v 19 13 -13
v -19 13 -14
v -18 13 -14
v 18 13 -14
v 19 13 -14
v -19 13 -15
v -18 13 -15
v 18 13 -15
v 19 13 -15
v -19 1 20
v 19 1 20
v -14 1 -12
v -10 1 -12
v 10 1 -12
v 14 1 -12
v -14 1 -15
v -10 1 -15
v 10 1 -15
v 14 1 -15
v -8 1 -18
v -5 1 -18
v 5 1 -18
v 8 1 -18
v -19 1 -19
v -8 1 -19
v -5 1 -19
v 5 1 -19
v 8 1 -19
v 19 1 -19
v -14 2 -12
v -10 2 -12
v 10 2 -12
v 14 2 -12
v -14 2 -15
v -10 2 -15
v 10 2 -15
v 14 2 -15
v -8 2 -18
v -5 2 -18
v 5 2 -18
v 8 2 -18
v -8 2 -19
v -5 2 -19
v 5 2 -19
v 8 2 -19
v -19 11 14
v -18 11 14
v 18 11 14
v 19 11 14
v -19 11 13
v -18 11 13
v 18 11 13
v 19 11 13
v -19 11 -13
v -18 11 -13
v 18 11 -13
v 19 11 -13
v -19 11 -14
v -18 11 -14
v 18 11 -14
v 19 11 -14
v -19 12 15
v -18 12 15
v 18 12 15
v 19 12 15
v -19 12 14
v -18 12 14
v -17 12 14
v 17 12 14
v 18 12 14
v 19 12 14
v -19 12 13
v -18 12 13
v -17 12 13
v 17 12 13
v 18 12 13
v 19 12 13
v -19 12 12
v -18 12 12
v 18 12 12
v 19 12 12
v -19 12 -12
v -18 12 -12
v 18 12 -12
v 19 12 -12
v -19 12 -13
v -18 12 -13
v -17 12 -13
v 17 12 -13
v 18 12 -13
v 19 12 -13
v -19 12 -14
v -18 12 -14
v -17 12 -14
v 17 12 -14
v 18 12 -14
v 19 12 -14
v -19 12 -15
v -18 12 -15
v 18 12 -15
v 19 12 -15
v -19 14 15
v -18 14 15
v -19 14 14
v -18 14 14
v 18 14 13
v 19 14 13
v 18 14 12
v 19 14 12
v -19 14 -12
v -18 14 -12
v -19 14 -13
v -18 14 -13
v 18 14 -14
v 19 14 -14
v 18 14 -15
v 19 14 -15
v 18 15 15
v 19 15 15
v 18 15 14
v 19 15 14
v -19 15 13
v -18 15 13
v -19 15 12
v -18 15 12
v 18 15 -12
v 19 15 -12
v 18 15 -13
v 19 15 -13
v -19 15 -14
v -18 15 -14
v -19 15 -15
v -18 15 -15
v -19 16 14
v -18 16 14
v 18 16 14
v 19 16 14
v -19 16 13
v -18 16 13
v 18 16 13
v 19 16 13
v -19 16 -13
v -18 16 -13
v 18 16 -13
v 19 16 -13
v -19 16 -14
v -18 16 -14
v 18 16 -14
v 19 16 -14
v -20 40 20
v -19 40 20
v 19 40 20
v 20 40 20
v -19 40 -19
v 19 40 -19
v -20 40 -20
v 20 40 -20

# faces
f 3/4/1 2/4/1 1/4/1
f 4/4/1 2/4/1 3/4/1
f 9/5/1 6/5/1 5/5/1
f 10/5/1 6/5/1 9/5/1
f 11/5/1 8/5/1 7/5/1
f 12/5/1 8/5/1 11/5/1
f 15/4/1 14/4/1 13/4/1
f 16/4/1 14/4/1 15/4/1
f 19/4/1 18/4/1 17/4/1
f 20/4/1 18/4/1 19/4/1
f 23/4/1 22/4/1 21/4/1
f 24/4/1 22/4/1 23/4/1
f 27/4/1 26/4/1 25/4/1
f 28/4/1 26/4/1 27/4/1
f 33/5/1 30/5/1 29/5/1
f 34/5/1 30/5/1 33/5/1
f 35/5/1 32/5/1 31/5/1
f 36/5/1 32/5/1 35/5/1
f 42/1/1 38/1/1 37/1/1
f 43/1/1 38/1/1 42/1/1
f 46/1/1 40/1/1 39/1/1
f 47/1/1 40/1/1 46/1/1
f 49/5/1 42/5/1 41/5/1
f 50/5/1 42/5/1 49/5/1
f 51/5/1 44/5/1 43/5/1
f 52/5/1 44/5/1 51/5/1
f 53/5/1 46/5/1 45/5/1
f 54/5/1 46/5/1 53/5/1
f 55/5/1 48/5/1 47/5/1
f 56/5/1 48/5/1 55/5/1
f 58/1/1 51/1/1 50/1/1
f 59/1/1 51/1/1 58/1/1
f 62/1/1 55/1/1 54/1/1
f 63/1/1 55/1/1 62/1/1
f 65/2/1 60/2/1 59/2/1
f 65/3/1 59/3/1 58/3/1
f 66/2/1 60/2/1 65/2/1
f 67/2/1 64/2/1 63/2/1
f 67/3/1 63/3/1 62/3/1
f 68/2/1 64/2/1 67/2/1
f 69/2/1 58/2/1 57/2/1
f 70/3/1 65/3/1 58/3/1
f 70/2/1 58/2/1 69/2/1
f 71/3/1 65/3/1 70/3/1
f 72/2/1 62/2/1 61/2/1
f 73/3/1 67/3/1 62/3/1
f 73/2/1 62/2/1 72/2/1
f 74/3/1 67/3/1 73/3/1
f 75/2/1 71/2/1 70/2/1
f 76/2/1 71/2/1 75/2/1
f 77/2/1 74/2/1 73/2/1
f 78/2/1 74/2/1 77/2/1
f 81/4/1 80/4/1 79/4/1
f 82/4/1 80/4/1 81/4/1
f 83/4/1 80/4/1 82/4/1
f 84/4/1 80/4/1 83/4/1
f 85/4/1 81/4/1 79/4/1
f 86/4/1 81/4/1 85/4/1
f 87/4/1 83/4/1 82/4/1
f 88/4/1 83/4/1 87/4/1
f 89/4/1 83/4/1 88/4/1
f 90/4/1 83/4/1 89/4/1
f 91/4/1 80/4/1 84/4/1
f 92/4/1 80/4/1 91/4/1
f 93/4/1 85/4/1 79/4/1
f 94/4/1 87/4/1 86/4/1
f 95/4/1 87/4/1 94/4/1
f 96/4/1 89/4/1 88/4/1
f 97/4/1 89/4/1 96/4/1
f 98/4/1 91/4/1 90/4/1
f 99/4/1 91/4/1 98/4/1
f 100/4/1 80/4/1 92/4/1
f 101/4/1 93/4/1 79/4/1
f 101/4/1 94/4/1 93/4/1
f 102/4/1 94/4/1 101/4/1
f 103/4/1 97/4/1 96/4/1
f 103/4/1 98/4/1 97/4/1
f 103/4/1 96/4/1 95/4/1
f 104/4/1 98/4/1 103/4/1
f 105/4/1 98/4/1 104/4/1
f 106/4/1 98/4/1 105/4/1
f 107/4/1 100/4/1 99/4/1
f 108/4/1 80/4/1 100/4/1
f 108/4/1 100/4/1 107/4/1
f 110/4/1 105/4/1 104/4/1
f 112/4/1 80/4/1 108/4/1
f 113/4/1 101/4/1 79/4/1
f 115/4/1 110/4/1 109/4/1
f 116/4/1 105/4/1 110/4/1
f 116/4/1 110/4/1 115/4/1
f 118/4/1 112/4/1 111/4/1
f 119/4/1 114/4/1 113/4/1
f 120/4/1 117/4/1 116/4/1
f 120/4/1 116/4/1 115/4/1
f 121/4/1 117/4/1 120/4/1
f 122/4/1 112/4/1 118/4/1
f 123/4/1 121/4/1 120/4/1
f 123/4/1 122/4/1 121/4/1
f 123/4/1 119/4/1 113/4/1
f 123/4/1 113/4/1 79/4/1
f 123/4/1 120/4/1 119/4/1
f 124/4/1 112/4/1 122/4/1
f 124/4/1 122/4/1 123/4/1
f 124/4/1 80/4/1 112/4/1
f 125/4/2 126/4/2 127/4/2
f 127/4/2 126/4/2 128/4/2
f 128/4/2 126/4/2 129/4/2
f 129/4/2 126/4/2 130/4/2
f 125/4/2 127/4/2 131/4/2
f 131/4/2 127/4/2 132/4/2
f 128/4/2 129/4/2 133/4/2
f 133/4/2 129/4/2 134/4/2
f 134/4/2 129/4/2 135/4/2
f 135/4/2 129/4/2 136/4/2
f 130/4/2 126/4/2 137/4/2
f 137/4/2 126/4/2 138/4/2
f 125/4/2 131/4/2 139/4/2
f 132/4/2 133/4/2 140/4/2
f 140/4/2 133/4/2 141/4/2
f 134/4/2 135/4/2 142/4/2
f 142/4/2 135/4/2 143/4/2
f 136/4/2 137/4/2 144/4/2
f 144/4/2 137/4/2 145/4/2
f 138/4/2 126/4/2 146/4/2
f 125/4/2 139/4/2 147/4/2
f 139/4/2 140/4/2 147/4/2
f 147/4/2 140/4/2 148/4/2
f 142/4/2 143/4/2 149/4/2
f 143/4/2 144/4/2 149/4/2
f 141/4/2 142/4/2 149/4/2
f 149/4/2 144/4/2 150/4/2
f 150/4/2 144/4/2 151/4/2
f 151/4/2 144/4/2 152/4/2
f 145/4/2 146/4/2 153/4/2
f 146/4/2 126/4/2 154/4/2
f 153/4/2 146/4/2 154/4/2
f 125/4/2 147/4/2 155/4/2
f 150/4/2 151/4/2 157/4/2
f 155/4/2 156/4/2 159/4/2
f 157/4/2 158/4/2 161/4/2
f 150/4/2 157/4/2 161/4/2
f 161/4/2 158/4/2 162/4/2
f 154/4/2 126/4/2 164/4/2
f 155/4/2 159/4/2 165/4/2
f 161/4/2 162/4/2 166/4/2
f 160/4/2 161/4/2 166/4/2
f 166/4/2 162/4/2 167/4/2
f 163/4/2 164/4/2 168/4/2
f 155/4/2 165/4/2 169/4/2
f 167/4/2 168/4/2 169/4/2
f 166/4/2 167/4/2 169/4/2
f 125/4/2 155/4/2 169/4/2
f 165/4/2 166/4/2 169/4/2
f 168/4/2 164/4/2 170/4/2
f 169/4/2 168/4/2 170/4/2
f 164/4/2 126/4/2 170/4/2
f 171/1/2 172/1/2 176/1/2
f 176/1/2 172/1/2 177/1/2
f 173/1/2 174/1/2 180/1/2
f 180/1/2 174/1/2 181/1/2
f 175/5/2 176/5/2 183/5/2
f 183/5/2 176/5/2 184/5/2
f 177/5/2 178/5/2 185/5/2
f 185/5/2 178/5/2 186/5/2
f 179/5/2 180/5/2 187/5/2
f 187/5/2 180/5/2 188/5/2
f 181/5/2 182/5/2 189/5/2
f 189/5/2 182/5/2 190/5/2
f 184/1/2 185/1/2 192/1/2
f 192/1/2 185/1/2 193/1/2
f 188/1/2 189/1/2 196/1/2
f 196/1/2 189/1/2 197/1/2
f 191/2/2 192/2/2 199/2/2
f 192/3/2 193/3/2 200/3/2
f 199/2/2 192/2/2 200/2/2
f 195/2/2 196/2/2 201/2/2
f 196/3/2 197/3/2 202/3/2
f 201/2/2 196/2/2 202/2/2
f 200/3/2 193/3/2 203/3/2
f 193/2/2 194/2/2 204/2/2
f 203/3/2 193/3/2 204/3/2
f 204/2/2 194/2/2 205/2/2
f 202/3/2 197/3/2 206/3/2
f 197/2/2 198/2/2 207/2/2
f 206/3/2 197/3/2 207/3/2
f 207/2/2 198/2/2 208/2/2
f 203/2/2 204/2/2 209/2/2
f 209/2/2 204/2/2 210/2/2
f 206/2/2 207/2/2 211/2/2
f 211/2/2 207/2/2 212/2/2
f 213/5/2 214/5/2 217/5/2
f 217/5/2 214/5/2 218/5/2
f 215/5/2 216/5/2 219/5/2
f 219/5/2 216/5/2 220/5/2
f 221/4/2 222/4/2 223/4/2
f 223/4/2 222/4/2 224/4/2
f 225/4/2 226/4/2 227/4/2
f 227/4/2 226/4/2 228/4/2
f 229/4/2 230/4/2 231/4/2
f 231/4/2 230/4/2 232/4/2
f 233/4/2 234/4/2 235/4/2
f 235/4/2 234/4/2 236/4/2
f 237/5/2 238/5/2 241/5/2
f 241/5/2 238/5/2 242/5/2
f 239/5/2 240/5/2 243/5/2
f 243/5/2 240/5/2 244/5/2
f 245/4/2 246/4/2 247/4/2
f 247/4/2 246/4/2 248/4/2
f 251/4/3 250/4/3 249/4/3
f 252/4/3 250/4/3 251/4/3
f 253/4/3 251/4/3 249/4/3
f 255/4/3 253/4/3 249/4/3
f 255/4/3 254/4/3 253/4/3
f 256/4/3 254/4/3 255/4/3
f 261/5/3 258/5/3 257/5/3
f 262/5/3 258/5/3 261/5/3
f 263/2/3 260/2/3 259/2/3
f 264/2/3 260/2/3 263/2/3
f 269/5/3 266/5/3 265/5/3
f 270/5/3 266/5/3 269/5/3
f 271/2/3 268/2/3 267/2/3
f 272/2/3 268/2/3 271/2/3
f 280/1/3 274/1/3 273/1/3
f 281/1/3 274/1/3 280/1/3
f 282/1/3 276/1/3 275/1/3
f 283/1/3 276/1/3 282/1/3
f 284/3/3 278/3/3 277/3/3
f 285/2/3 279/2/3 278/2/3
f 285/3/3 278/3/3 284/3/3
f 286/2/3 279/2/3 285/2/3
f 287/5/3 282/5/3 281/5/3
f 288/5/3 282/5/3 287/5/3
f 292/5/3 290/5/3 289/5/3
f 293/5/3 290/5/3 292/5/3
f 297/1/3 292/1/3 291/1/3
f 298/1/3 292/1/3 297/1/3
f 299/1/3 294/1/3 293/1/3
f 300/1/3 294/1/3 299/1/3
f 301/2/3 296/2/3 295/2/3
f 302/2/3 296/2/3 301/2/3
f 305/5/3 304/5/3 303/5/3
f 306/5/3 304/5/3 305/5/3
f 309/5/3 308/5/3 307/5/3
f 310/5/3 308/5/3 309/5/3
f 315/5/3 312/5/3 311/5/3
f 316/5/3 312/5/3 315/5/3
f 317/2/3 314/2/3 313/2/3
f 318/2/3 314/2/3 317/2/3
f 321/4/3 320/4/3 319/4/3
f 322/4/3 320/4/3 321/4/3
f 325/4/3 324/4/3 323/4/3
f 326/4/3 324/4/3 325/4/3
f 331/5/3 328/5/3 327/5/3
f 332/5/3 328/5/3 331/5/3
f 333/2/3 330/2/3 329/2/3
f 334/2/3 330/2/3 333/2/3
f 342/1/3 336/1/3 335/1/3
f 343/1/3 336/1/3 342/1/3
f 344/1/3 338/1/3 337/1/3
f 345/1/3 338/1/3 344/1/3
f 346/3/3 340/3/3 339/3/3
f 347/2/3 341/2/3 340/2/3
f 347/3/3 340/3/3 346/3/3
f 348/2/3 341/2/3 347/2/3
f 349/5/3 344/5/3 343/5/3
f 350/5/3 344/5/3 349/5/3
f 354/5/3 352/5/3 351/5/3
f 355/5/3 352/5/3 354/5/3
f 359/1/3 354/1/3 353/1/3
f 360/1/3 354/1/3 359/1/3
f 361/1/3 356/1/3 355/1/3
f 362/1/3 356/1/3 361/1/3
f 363/2/3 358/2/3 357/2/3
f 364/2/3 358/2/3 363/2/3
f 367/5/3 366/5/3 365/5/3
f 368/5/3 366/5/3 367/5/3
f 371/5/3 370/5/3 369/5/3
f 372/5/3 370/5/3 371/5/3
f 375/4/3 374/4/3 373/4/3
f 376/4/3 374/4/3 375/4/3
f 379/4/3 378/4/3 377/4/3
f 380/4/3 378/4/3 379/4/3
f 383/4/3 382/4/3 381/4/3
f 384/4/3 382/4/3 383/4/3
f 386/4/3 382/4/3 384/4/3
f 387/4/3 386/4/3 385/4/3
f 388/4/3 382/4/3 386/4/3
f 388/4/3 386/4/3 387/4/3
f 390/4/3 382/4/3 388/4/3
f 391/4/3 390/4/3 389/4/3
f 392/4/3 382/4/3 390/4/3
f 392/4/3 390/4/3 391/4/3
f 393/5/4 394/5/4 395/5/4
f 395/5/4 394/5/4 396/5/4
f 397/5/4 398/5/4 399/5/4
f 399/5/4 398/5/4 400/5/4
f 401/1/4 402/1/4 407/1/4
f 407/1/4 402/1/4 408/1/4
f 403/1/4 404/1/4 409/1/4
f 409/1/4 404/1/4 410/1/4
f 405/2/4 406/2/4 411/2/4
f 411/2/4 406/2/4 412/2/4
f 408/5/4 409/5/4 413/5/4
f 413/5/4 409/5/4 414/5/4
f 415/5/4 416/5/4 418/5/4
f 418/5/4 416/5/4 419/5/4
f 417/1/4 418/1/4 424/1/4
f 424/1/4 418/1/4 425/1/4
f 419/1/4 420/1/4 426/1/4
f 426/1/4 420/1/4 427/1/4
f 421/3/4 422/3/4 428/3/4
f 422/2/4 423/2/4 429/2/4
f 428/3/4 422/3/4 429/3/4
f 429/2/4 423/2/4 430/2/4
f 431/5/4 432/5/4 435/5/4
f 435/5/4 432/5/4 436/5/4
f 433/2/4 434/2/4 437/2/4
f 437/2/4 434/2/4 438/2/4
f 439/5/4 440/5/4 443/5/4
f 443/5/4 440/5/4 444/5/4
f 441/2/4 442/2/4 445/2/4
f 445/2/4 442/2/4 446/2/4
f 447/5/4 448/5/4 449/5/4
f 449/5/4 448/5/4 450/5/4
f 451/5/4 452/5/4 453/5/4
f 453/5/4 452/5/4 454/5/4
f 455/1/4 456/1/4 461/1/4
f 461/1/4 456/1/4 462/1/4
f 457/1/4 458/1/4 463/1/4
f 463/1/4 458/1/4 464/1/4
f 459/2/4 460/2/4 465/2/4
f 465/2/4 460/2/4 466/2/4
f 462/5/4 463/5/4 467/5/4
f 467/5/4 463/5/4 468/5/4
f 469/5/4 470/5/4 472/5/4
f 472/5/4 470/5/4 473/5/4
f 471/1/4 472/1/4 478/1/4
f 478/1/4 472/1/4 479/1/4
f 473/1/4 474/1/4 480/1/4
f 480/1/4 474/1/4 481/1/4
f 475/3/4 476/3/4 482/3/4
f 476/2/4 477/2/4 483/2/4
f 482/3/4 476/3/4 483/3/4
f 483/2/4 477/2/4 484/2/4
f 485/5/4 486/5/4 489/5/4
f 489/5/4 486/5/4 490/5/4
f 487/2/4 488/2/4 491/2/4
f 491/2/4 488/2/4 492/2/4
f 493/4/4 494/4/4 495/4/4
f 495/4/4 494/4/4 496/4/4
f 497/4/4 498/4/4 499/4/4
f 499/4/4 498/4/4 500/4/4
f 501/5/4 502/5/4 505/5/4
f 505/5/4 502/5/4 506/5/4
f 503/2/4 504/2/4 507/2/4
f 507/2/4 504/2/4 508/2/4
f 509/4/4 510/4/4 511/4/4
f 511/4/4 510/4/4 512/4/4
f 515/4/5 514/4/5 513/4/5
f 516/4/5 514/4/5 515/4/5
f 521/1/5 518/1/5 517/1/5
f 522/1/5 518/1/5 521/1/5
f 523/1/5 520/1/5 519/1/5
f 524/1/5 520/1/5 523/1/5
f 529/1/5 526/1/5 525/1/5
f 530/1/5 526/1/5 529/1/5
f 531/1/5 528/1/5 527/1/5
f 532/1/5 528/1/5 531/1/5
f 537/5/5 534/5/5 533/5/5
f 538/5/5 534/5/5 537/5/5
f 541/5/5 536/5/5 535/5/5
f 542/5/5 536/5/5 541/5/5
f 544/5/5 539/5/5 538/5/5
f 545/5/5 539/5/5 544/5/5
f 546/5/5 541/5/5 540/5/5
f 547/5/5 541/5/5 546/5/5
f 549/5/5 544/5/5 543/5/5
f 550/5/5 544/5/5 549/5/5
f 551/5/5 548/5/5 547/5/5
f 552/5/5 548/5/5 551/5/5
f 557/5/5 554/5/5 553/5/5
f 558/5/5 554/5/5 557/5/5
f 561/5/5 556/5/5 555/5/5
f 562/5/5 556/5/5 561/5/5
f 564/5/5 559/5/5 558/5/5
f 565/5/5 559/5/5 564/5/5
f 566/5/5 561/5/5 560/5/5
f 567/5/5 561/5/5 566/5/5
f 569/5/5 564/5/5 563/5/5
f 570/5/5 564/5/5 569/5/5
f 571/5/5 568/5/5 567/5/5
f 572/5/5 568/5/5 571/5/5
f 577/1/5 574/1/5 573/1/5
f 578/1/5 574/1/5 577/1/5
f 579/1/5 576/1/5 575/1/5
f 580/1/5 576/1/5 579/1/5
f 585/1/5 582/1/5 581/1/5
f 586/1/5 582/1/5 585/1/5
f 587/1/5 584/1/5 583/1/5
f 588/1/5 584/1/5 587/1/5
f 593/2/5 590/2/5 589/2/5
f 594/2/5 590/2/5 593/2/5
f 595/2/5 592/2/5 591/2/5
f 596/2/5 592/2/5 595/2/5
f 601/2/5 598/2/5 597/2/5
f 602/2/5 598/2/5 601/2/5
f 603/2/5 600/2/5 599/2/5
f 604/2/5 600/2/5 603/2/5
f 609/2/5 606/2/5 605/2/5
f 610/2/5 606/2/5 609/2/5
f 611/2/5 608/2/5 607/2/5
f 612/2/5 608/2/5 611/2/5
f 617/2/5 614/2/5 613/2/5
f 618/2/5 614/2/5 617/2/5
f 619/2/5 616/2/5 615/2/5
f 620/2/5 616/2/5 619/2/5
f 621/4/6 622/4/6 623/4/6
f 623/4/6 622/4/6 624/4/6
f 624/4/6 622/4/6 625/4/6
f 625/4/6 622/4/6 626/4/6
f 621/4/6 623/4/6 627/4/6
f 624/4/6 625/4/6 628/4/6
f 628/4/6 625/4/6 629/4/6
f 626/4/6 622/4/6 630/4/6
f 628/4/6 629/4/6 631/4/6
f 629/4/6 630/4/6 631/4/6
f 627/4/6 628/4/6 631/4/6
f 631/4/6 630/4/6 632/4/6
f 632/4/6 630/4/6 633/4/6
f 633/4/6 630/4/6 634/4/6
f 621/4/6 627/4/6 635/4/6
f 627/4/6 631/4/6 635/4/6
f 635/4/6 631/4/6 636/4/6
f 632/4/6 633/4/6 637/4/6
f 637/4/6 633/4/6 638/4/6
f 634/4/6 630/4/6 639/4/6
f 630/4/6 622/4/6 640/4/6
f 639/4/6 630/4/6 640/4/6
f 641/4/6 642/4/6 645/4/6
f 645/4/6 642/4/6 646/4/6
f 643/4/6 644/4/6 647/4/6
f 647/4/6 644/4/6 648/4/6
f 649/4/6 650/4/6 653/4/6
f 653/4/6 650/4/6 654/4/6
f 651/4/6 652/4/6 655/4/6
f 655/4/6 652/4/6 656/4/6
f 657/1/6 658/1/6 661/1/6
f 661/1/6 658/1/6 662/1/6
f 659/1/6 660/1/6 663/1/6
f 663/1/6 660/1/6 664/1/6
f 665/1/6 666/1/6 669/1/6
f 669/1/6 666/1/6 670/1/6
f 667/1/6 668/1/6 671/1/6
f 671/1/6 668/1/6 672/1/6
f 673/5/6 674/5/6 677/5/6
f 677/5/6 674/5/6 678/5/6
f 675/5/6 676/5/6 681/5/6
f 681/5/6 676/5/6 682/5/6
f 678/5/6 679/5/6 684/5/6
f 684/5/6 679/5/6 685/5/6
f 680/5/6 681/5/6 686/5/6
f 686/5/6 681/5/6 687/5/6
f 683/5/6 684/5/6 689/5/6
f 689/5/6 684/5/6 690/5/6
f 687/5/6 688/5/6 691/5/6
f 691/5/6 688/5/6 692/5/6
f 693/5/6 694/5/6 697/5/6
f 697/5/6 694/5/6 698/5/6
f 695/5/6 696/5/6 701/5/6
f 701/5/6 696/5/6 702/5/6
f 698/5/6 699/5/6 704/5/6
f 704/5/6 699/5/6 705/5/6
f 700/5/6 701/5/6 706/5/6
f 706/5/6 701/5/6 707/5/6
f 703/5/6 704/5/6 709/5/6
f 709/5/6 704/5/6 710/5/6
f 707/5/6 708/5/6 711/5/6
f 711/5/6 708/5/6 712/5/6
f 713/2/6 714/2/6 715/2/6
f 715/2/6 714/2/6 716/2/6
f 717/2/6 718/2/6 719/2/6
f 719/2/6 718/2/6 720/2/6
f 721/2/6 722/2/6 723/2/6
f 723/2/6 722/2/6 724/2/6
f 725/2/6 726/2/6 727/2/6
f 727/2/6 726/2/6 728/2/6
f 729/2/6 730/2/6 731/2/6
f 731/2/6 730/2/6 732/2/6
f 733/2/6 734/2/6 735/2/6
f 735/2/6 734/2/6 736/2/6
f 737/2/6 738/2/6 739/2/6
f 739/2/6 738/2/6 740/2/6
f 741/2/6 742/2/6 743/2/6
f 743/2/6 742/2/6 744/2/6
f 745/2/6 746/2/6 749/2/6
f 749/2/6 746/2/6 750/2/6
f 747/2/6 748/2/6 751/2/6
f 751/2/6 748/2/6 752/2/6
f 753/2/6 754/2/6 757/2/6
f 757/2/6 754/2/6 758/2/6
f 755/2/6 756/2/6 759/2/6
f 759/2/6 756/2/6 760/2/6
f 761/4/6 762/4/6 765/4/6
f 763/4/6 764/4/6 766/4/6
f 761/4/6 765/4/6 767/4/6
f 765/4/6 766/4/6 767/4/6
f 766/4/6 764/4/6 768/4/6
f 767/4/6 766/4/6 768/4/6
